<?xml version="1.0" standalone="no"?>
<!DOCTYPE svg PUBLIC "-//W3C//DTD SVG 20010904//EN"
 "http://www.w3.org/TR/2001/REC-SVG-20010904/DTD/svg10.dtd">
<svg version="1.0" xmlns="http://www.w3.org/2000/svg"
 width="900.000000pt" height="900.000000pt" viewBox="0 0 900.000000 900.000000"
 preserveAspectRatio="xMidYMid meet">
<metadata>
Created by potrace 1.10, written by Peter Selinger 2001-2011
</metadata>
<g transform="translate(0.000000,900.000000) scale(0.100000,-0.100000)"
fill="#000000" stroke="none">
<path d="M1880 8986 c0 -7 -25 -40 -55 -72 -54 -57 -54 -59 -33 -69 13 -5 27
-15 31 -22 13 -21 24 -15 42 24 21 43 29 55 73 99 17 18 32 37 32 43 0 6 -20
11 -45 11 -32 0 -45 -4 -45 -14z"/>
<path d="M6567 8958 c-10 -87 -9 -388 2 -388 6 0 11 1 12 3 6 17 7 427 1 427
-5 0 -12 -19 -15 -42z"/>
<path d="M6652 8978 c2 -13 8 -23 13 -23 6 0 11 10 13 23 2 15 -2 22 -13 22
-11 0 -15 -7 -13 -22z"/>
<path d="M6750 8979 c0 -24 23 -21 28 4 2 10 -3 17 -12 17 -10 0 -16 -9 -16
-21z"/>
<path d="M8100 8970 c-5 -97 -11 -176 -15 -187 -6 -18 5 -43 19 -43 14 0 20
192 7 235 l-9 30 -2 -35z"/>
<path d="M8240 8986 c0 -8 -3 -21 -6 -30 -4 -10 -1 -16 9 -16 8 0 20 -7 27
-15 7 -8 23 -15 37 -15 36 0 26 33 -12 40 -21 4 -31 12 -33 28 -4 24 -22 31
-22 8z"/>
<path d="M8470 8986 c0 -21 27 -38 50 -31 11 3 20 15 20 26 0 15 -7 19 -35 19
-23 0 -35 -5 -35 -14z"/>
<path d="M2030 8908 c-22 -24 -27 -48 -9 -48 14 0 48 41 49 58 0 19 -17 14
-40 -10z"/>
<path d="M8506 8904 c-7 -19 12 -47 25 -38 5 3 9 16 9 30 0 27 -24 33 -34 8z"/>
<path d="M8170 8870 c-13 -8 -13 -11 2 -27 21 -20 45 -5 35 21 -7 18 -16 20
-37 6z"/>
<path d="M7396 8816 c-9 -14 -16 -32 -16 -40 0 -13 7 -11 35 6 22 12 35 27 33
37 -5 26 -34 24 -52 -3z"/>
<path d="M8454 8827 c-9 -25 0 -51 19 -55 12 -3 17 3 17 21 0 31 -27 57 -36
34z"/>
<path d="M8518 8824 c-5 -4 -8 -16 -8 -28 0 -14 3 -17 11 -9 6 6 9 19 7 28 -1
9 -6 13 -10 9z"/>
<path d="M8025 8770 c-3 -5 3 -10 14 -10 12 0 21 5 21 10 0 6 -6 10 -14 10 -8
0 -18 -4 -21 -10z"/>
<path d="M4096 8755 c-3 -8 -15 -15 -26 -15 -11 0 -20 -4 -20 -10 0 -5 10 -9
23 -7 18 2 22 -3 22 -28 0 -30 0 -30 75 -38 41 -4 90 -15 108 -23 37 -17 70
-13 136 17 51 23 106 25 106 4 0 -17 31 -20 47 -4 8 8 25 8 63 0 28 -6 66 -11
83 -11 18 0 37 -4 43 -9 8 -8 41 -13 169 -24 17 -1 44 -12 59 -25 17 -13 43
-22 63 -22 23 0 36 -6 40 -17 9 -24 23 -33 56 -33 17 0 27 5 27 15 0 8 -9 15
-19 15 -11 0 -23 5 -26 10 -3 6 2 10 13 10 29 0 32 9 14 41 -17 29 -49 38 -68
19 -13 -13 -61 10 -84 39 -8 10 -29 22 -47 26 -26 5 -34 2 -43 -15 -9 -18 -18
-21 -41 -16 -15 3 -37 14 -48 25 -11 11 -39 25 -63 31 -24 6 -50 14 -58 17
-21 8 -77 15 -123 14 -22 0 -48 4 -58 10 -16 8 -27 4 -62 -24 -73 -60 -182
-74 -207 -27 -6 11 -15 20 -20 20 -5 0 -26 11 -46 25 -41 28 -79 32 -88 10z"/>
<path d="M1640 8741 c0 -11 26 -22 34 -14 3 3 3 10 0 14 -7 12 -34 11 -34 0z"/>
<path d="M7915 8740 c-3 -5 3 -10 14 -10 12 0 21 5 21 10 0 6 -6 10 -14 10 -8
0 -18 -4 -21 -10z"/>
<path d="M7281 8707 c-11 -29 -3 -47 20 -47 14 0 19 7 19 29 0 37 -27 50 -39
18z"/>
<path d="M7870 8720 c-8 -5 -25 -10 -37 -10 -32 0 -30 -34 2 -48 16 -7 25 -20
25 -33 0 -33 13 -14 27 39 18 68 16 73 -17 52z"/>
<path d="M7966 8713 c-3 -3 -1 -14 5 -25 11 -20 29 -16 29 7 0 14 -24 27 -34
18z"/>
<path d="M8976 8712 c-3 -6 -1 -14 5 -17 15 -10 25 3 12 16 -7 7 -13 7 -17 1z"/>
<path d="M453 8703 c-15 -5 -18 -53 -4 -53 5 0 17 -3 26 -6 14 -6 16 -1 13 26
-3 34 -13 43 -35 33z"/>
<path d="M3950 8703 c-48 -7 -120 -47 -120 -67 0 -16 5 -18 38 -11 20 5 64 9
97 10 91 2 91 2 72 23 -10 10 -17 26 -17 35 0 17 -14 19 -70 10z"/>
<path d="M5226 8674 c-18 -18 -21 -40 -5 -49 13 -8 38 23 39 48 0 21 -14 22
-34 1z"/>
<path d="M147 8663 c-19 -10 -25 -18 -19 -26 5 -7 14 -25 20 -42 10 -30 10
-30 11 13 1 28 6 45 16 48 15 6 21 25 8 23 -5 -1 -21 -8 -36 -16z"/>
<path d="M3266 8643 c-12 -12 -6 -33 9 -33 8 0 15 6 15 14 0 17 -14 28 -24 19z"/>
<path d="M7343 8638 c2 -7 10 -13 17 -13 7 0 15 6 18 13 2 7 -5 12 -18 12 -13
0 -20 -5 -17 -12z"/>
<path d="M7760 8624 c0 -8 -7 -22 -15 -30 -17 -17 -20 -80 -5 -89 6 -4 10 6
10 22 1 15 7 39 15 53 17 29 19 60 5 60 -5 0 -10 -7 -10 -16z"/>
<path d="M1965 8600 c-24 -27 -13 -50 25 -50 18 0 33 -6 36 -15 4 -8 15 -15
25 -15 25 0 13 29 -17 41 -17 6 -24 16 -24 34 0 30 -20 33 -45 5z"/>
<path d="M7404 8609 c-3 -6 -1 -16 5 -22 8 -8 11 -5 11 11 0 24 -5 28 -16 11z"/>
<path d="M1681 8564 c-18 -26 -21 -38 -13 -46 8 -8 13 -6 18 8 3 10 11 29 17
41 17 37 4 35 -22 -3z"/>
<path d="M3737 8593 c-14 -13 -6 -24 15 -21 27 4 36 28 11 28 -11 0 -23 -3
-26 -7z"/>
<path d="M7147 8594 c-14 -14 -7 -25 13 -22 12 2 21 8 21 13 0 12 -24 18 -34
9z"/>
<path d="M8487 8593 c-21 -20 5 -81 35 -83 16 0 18 41 2 65 -17 26 -26 30 -37
18z"/>
<path d="M1500 8575 c-21 -25 -1 -31 23 -7 17 18 18 22 5 22 -8 0 -21 -7 -28
-15z"/>
<path d="M3960 8582 c0 -4 6 -14 13 -21 10 -11 8 -13 -12 -8 -17 4 -24 1 -28
-14 -7 -24 -44 -34 -71 -20 -28 15 -62 14 -62 -2 0 -8 16 -19 36 -25 41 -12
105 3 167 42 l38 23 -25 17 c-27 17 -56 21 -56 8z"/>
<path d="M140 8515 c0 -14 5 -25 10 -25 6 0 10 11 10 25 0 14 -4 25 -10 25 -5
0 -10 -11 -10 -25z"/>
<path d="M1094 8525 c-4 -8 -15 -15 -25 -15 -39 0 -17 -18 28 -23 60 -6 67 -2
47 29 -18 27 -42 32 -50 9z"/>
<path d="M7260 8511 l-25 -7 31 -17 c26 -14 34 -14 49 -3 18 13 18 14 -3 25
-11 6 -22 11 -24 10 -2 -1 -14 -4 -28 -8z"/>
<path d="M2172 8478 c-27 -44 -60 -58 -77 -34 -17 23 -25 20 -25 -9 0 -25 2
-26 72 -40 21 -4 62 71 56 101 -3 15 -8 12 -26 -18z"/>
<path d="M5180 8497 c0 -19 50 -41 63 -28 5 5 7 17 4 25 -8 20 -67 22 -67 3z"/>
<path d="M6544 8497 c-2 -7 -3 -80 -2 -162 3 -136 4 -148 17 -122 11 20 12 33
4 50 -10 22 -5 94 13 210 5 30 3 37 -10 37 -9 0 -19 -6 -22 -13z"/>
<path d="M8424 8485 c-7 -18 3 -35 22 -35 15 0 17 9 8 34 -8 20 -23 21 -30 1z"/>
<path d="M3757 8448 c-43 -22 -62 -27 -70 -19 -19 19 -72 13 -95 -12 -26 -28
-27 -35 -6 -58 14 -16 14 -18 -5 -29 -28 -15 -26 -30 4 -30 14 0 29 8 35 20 6
11 21 20 34 20 12 0 42 18 67 40 24 23 56 48 72 58 15 9 27 22 27 29 0 7 -1
13 -2 12 -2 -1 -29 -15 -61 -31z"/>
<path d="M5250 8440 c0 -4 7 -10 15 -14 8 -3 15 -18 15 -33 1 -25 2 -26 14
-10 7 9 18 17 24 17 30 0 16 19 -23 32 -25 9 -45 12 -45 8z"/>
<path d="M5435 8440 c-11 -5 -32 -11 -47 -14 -38 -9 -35 -18 12 -38 43 -18 46
-38 7 -55 -19 -9 -14 -13 43 -41 35 -18 67 -32 72 -32 14 0 9 47 -7 60 -8 7
-15 23 -15 35 0 13 -7 25 -15 29 -20 7 -19 32 1 40 8 3 12 10 9 16 -7 12 -32
12 -60 0z"/>
<path d="M7760 8435 c0 -9 9 -15 21 -15 18 0 19 2 9 15 -7 8 -16 15 -21 15 -5
0 -9 -7 -9 -15z"/>
<path d="M132 8413 c2 -10 10 -18 18 -18 22 0 18 29 -3 33 -14 3 -18 -1 -15
-15z"/>
<path d="M8442 8418 c-16 -16 -15 -58 2 -58 19 0 38 26 34 46 -4 22 -20 28
-36 12z"/>
<path d="M7875 8394 c-24 -37 -11 -66 28 -62 26 2 32 8 34 28 2 17 -5 31 -21
42 -23 17 -25 17 -41 -8z"/>
<path d="M783 8365 c0 -22 2 -30 4 -17 2 12 2 30 0 40 -3 9 -5 -1 -4 -23z"/>
<path d="M1546 8343 c-3 -26 -2 -51 4 -57 12 -12 23 14 24 61 2 54 -20 51 -28
-4z"/>
<path d="M7201 8367 c9 -7 19 -22 23 -35 4 -12 15 -22 26 -22 10 0 22 -4 25
-10 9 -15 35 -12 35 4 0 16 -89 76 -111 76 -11 -1 -11 -3 2 -13z"/>
<path d="M5593 8360 c-29 -12 -29 -25 -1 -44 27 -19 38 -12 38 25 0 31 -3 33
-37 19z"/>
<path d="M8510 8336 c0 -14 5 -28 10 -31 6 -4 10 7 10 24 0 17 -4 31 -10 31
-5 0 -10 -11 -10 -24z"/>
<path d="M138 8344 c-3 -3 -4 -31 -1 -63 4 -40 1 -68 -10 -92 -8 -19 -18 -46
-21 -61 -4 -16 -12 -28 -20 -28 -7 0 -19 -7 -27 -16 -10 -13 -10 -17 1 -24 12
-7 10 -13 -8 -33 -22 -24 -30 -67 -12 -67 6 0 10 9 10 20 0 15 7 20 25 20 31
0 35 -34 5 -50 -16 -9 -20 -21 -20 -61 0 -46 2 -50 20 -44 15 5 22 1 29 -17 5
-13 7 -26 4 -30 -8 -14 -33 -8 -33 7 0 27 -18 16 -30 -19 -11 -33 -6 -59 22
-113 7 -15 8 -26 1 -35 -14 -18 -26 -137 -15 -151 5 -7 17 -34 26 -60 15 -39
16 -54 7 -74 -14 -31 -8 -41 35 -59 28 -12 34 -20 34 -44 0 -32 18 -50 30 -30
9 15 1 82 -11 90 -14 10 -31 147 -21 167 6 10 9 63 8 118 -2 94 -4 100 -25
105 -12 3 -22 8 -22 13 1 4 1 12 1 17 0 6 9 10 20 10 28 0 36 42 14 79 -14 24
-15 33 -5 45 23 27 23 105 1 172 -26 78 -24 118 8 122 12 2 22 4 22 5 0 1 -4
17 -9 35 -8 26 -7 34 5 39 18 7 18 32 -1 39 -9 4 -15 19 -15 40 0 31 -8 42
-22 28z m-13 -754 c13 -15 15 -24 8 -31 -19 -19 -48 -6 -51 24 -4 33 17 36 43
7z"/>
<path d="M4471 8337 c9 -7 18 -21 20 -32 3 -11 12 -21 23 -23 15 -3 17 0 11
20 -9 26 -33 47 -55 47 -13 0 -12 -2 1 -12z"/>
<path d="M5160 8325 c0 -8 2 -15 4 -15 2 0 11 -3 20 -6 10 -4 16 -1 16 9 0 8
-7 18 -16 21 -22 9 -24 8 -24 -9z"/>
<path d="M5251 8300 c-34 -17 -34 -18 -14 -29 29 -15 44 -14 70 4 25 17 21 46
-6 44 -9 -1 -31 -9 -50 -19z"/>
<path d="M682 8279 c1 -13 8 -23 13 -21 15 3 12 35 -3 40 -9 3 -13 -3 -10 -19z"/>
<path d="M3348 8249 c-24 -28 -55 -64 -69 -79 -14 -15 -31 -41 -38 -58 -8 -18
-17 -32 -22 -32 -5 0 -9 -7 -9 -16 0 -9 -18 -39 -40 -66 -48 -61 -53 -91 -13
-86 17 2 29 10 31 21 4 20 58 106 99 156 29 35 48 65 58 91 16 38 24 45 58 48
50 4 67 27 39 52 -32 30 -47 25 -94 -31z"/>
<path d="M4645 8280 c-8 -13 20 -24 36 -15 8 6 7 10 -2 16 -18 11 -26 11 -34
-1z"/>
<path d="M5660 8278 c0 -7 11 -30 25 -50 14 -20 25 -42 25 -47 0 -6 14 -18 30
-26 17 -9 35 -27 41 -41 5 -14 18 -28 30 -31 11 -3 19 -13 18 -22 -1 -9 3 -29
9 -44 10 -24 15 -26 32 -17 38 20 15 66 -90 179 -96 105 -120 124 -120 99z"/>
<path d="M8454 8255 c-8 -31 11 -58 25 -36 9 15 3 48 -10 57 -5 2 -11 -7 -15
-21z"/>
<path d="M4535 8260 c3 -5 13 -10 21 -10 8 0 12 5 9 10 -3 6 -13 10 -21 10 -8
0 -12 -4 -9 -10z"/>
<path d="M5600 8225 c0 -8 7 -15 15 -15 8 0 15 7 15 15 0 8 -7 15 -15 15 -8 0
-15 -7 -15 -15z"/>
<path d="M6155 8230 c-4 -6 -4 -10 -1 -10 2 0 11 -3 20 -6 9 -3 16 -2 16 4 0
14 -28 23 -35 12z"/>
<path d="M3505 8200 c3 -5 13 -10 21 -10 8 0 14 5 14 10 0 6 -9 10 -21 10 -11
0 -17 -4 -14 -10z"/>
<path d="M4980 8205 c0 -14 31 -65 40 -65 21 0 21 23 -1 46 -21 22 -39 31 -39
19z"/>
<path d="M7490 8195 c0 -8 5 -15 10 -15 6 0 10 7 10 15 0 8 -4 15 -10 15 -5 0
-10 -7 -10 -15z"/>
<path d="M1556 8177 c-3 -12 -6 -50 -6 -84 0 -34 -4 -65 -10 -68 -6 -4 -6 -12
-1 -23 5 -9 12 -26 16 -36 11 -35 15 -10 19 107 4 109 -4 156 -18 104z"/>
<path d="M4840 8185 c-19 -22 -29 -82 -17 -94 17 -17 27 -13 27 8 0 11 5 23
10 26 12 8 13 62 1 69 -5 3 -14 -1 -21 -9z"/>
<path d="M6536 8104 c-7 -59 1 -81 27 -71 22 8 18 121 -4 125 -13 2 -18 -9
-23 -54z"/>
<path d="M1360 8143 c0 -2 10 -17 22 -33 24 -32 38 -31 38 4 0 19 -7 25 -30
28 -16 3 -30 3 -30 1z"/>
<path d="M5300 8104 c0 -12 66 -64 81 -64 6 0 27 -17 45 -37 29 -33 33 -35 34
-17 0 11 -9 29 -20 39 -10 9 -18 27 -17 38 2 16 -6 23 -33 30 -66 16 -90 19
-90 11z"/>
<path d="M8945 8099 c-12 -18 1 -20 31 -4 l29 15 -27 0 c-15 0 -30 -5 -33 -11z"/>
<path d="M7590 8073 c8 -3 19 -12 23 -19 4 -8 13 -14 19 -14 6 0 3 9 -7 20
-10 11 -25 20 -34 19 -14 0 -14 -1 -1 -6z"/>
<path d="M1303 8036 c-31 -14 -29 -21 8 -37 28 -11 33 -11 46 7 12 16 11 20
-4 31 -19 15 -20 15 -50 -1z"/>
<path d="M3990 8028 c0 -19 2 -20 10 -8 13 19 13 30 0 30 -5 0 -10 -10 -10
-22z"/>
<path d="M8524 8029 c-3 -6 -1 -16 5 -22 11 -11 16 -67 6 -67 -3 0 -14 5 -25
12 -10 7 -22 9 -26 5 -12 -11 18 -36 51 -43 l30 -6 -1 49 c0 26 -2 56 -2 66
-2 19 -27 23 -38 6z"/>
<path d="M8760 8021 c0 -10 30 -24 37 -17 3 3 2 9 -2 15 -8 13 -35 15 -35 2z"/>
<path d="M5902 7984 c1 -9 9 -19 16 -22 9 -3 13 2 10 14 -1 9 -9 19 -16 22 -9
3 -13 -2 -10 -14z"/>
<path d="M6540 7985 c0 -8 5 -15 10 -15 6 0 10 7 10 15 0 8 -4 15 -10 15 -5 0
-10 -7 -10 -15z"/>
<path d="M5470 7945 c0 -8 7 -15 15 -15 8 0 15 7 15 15 0 8 -7 15 -15 15 -8 0
-15 -7 -15 -15z"/>
<path d="M5130 7925 c0 -8 5 -15 10 -15 6 0 10 7 10 15 0 8 -4 15 -10 15 -5 0
-10 -7 -10 -15z"/>
<path d="M5504 7904 c3 -9 6 -18 6 -20 0 -7 36 -5 43 3 8 8 -23 32 -42 33 -8
0 -11 -6 -7 -16z"/>
<path d="M6543 7903 c-16 -41 -2 -295 17 -318 7 -9 17 -12 21 -8 9 9 -8 159
-20 181 -4 8 -6 47 -3 88 4 71 -1 93 -15 57z"/>
<path d="M2156 7903 c-12 -12 -6 -71 9 -83 8 -7 15 -21 15 -31 0 -25 12 -24
28 1 11 18 10 20 -8 20 -17 0 -20 7 -20 44 0 43 -10 63 -24 49z"/>
<path d="M4094 7895 c-4 -8 -3 -30 0 -48 4 -17 11 -66 15 -107 15 -124 32
-224 42 -242 5 -10 9 -28 9 -40 1 -43 62 -148 86 -148 20 0 17 26 -5 47 -10
10 -23 34 -29 53 -9 33 -15 60 -41 200 -6 30 -17 105 -25 167 -8 62 -17 117
-21 123 -9 15 -25 12 -31 -5z"/>
<path d="M5960 7897 c0 -22 37 -50 57 -43 15 6 13 10 -12 31 -34 28 -45 31
-45 12z"/>
<path d="M1435 7887 c-8 -20 1 -67 13 -67 5 0 16 6 25 13 16 11 15 14 -7 42
-21 26 -25 28 -31 12z"/>
<path d="M1550 7866 c0 -36 13 -55 25 -36 9 14 -4 70 -16 70 -5 0 -9 -15 -9
-34z"/>
<path d="M8710 7880 c-12 -7 -12 -12 -2 -22 9 -9 15 -9 24 0 8 8 9 15 2 22 -5
5 -15 6 -24 0z"/>
<path d="M5160 7819 c1 -55 5 -69 30 -103 19 -25 30 -52 30 -71 0 -18 8 -43
19 -56 10 -13 22 -35 26 -49 4 -14 30 -67 56 -119 27 -52 49 -105 49 -118 0
-31 -27 -30 -52 2 -11 14 -39 37 -64 51 -37 22 -44 31 -44 58 0 17 -6 40 -13
51 -8 11 -24 52 -36 90 -13 39 -36 98 -52 133 -16 34 -29 70 -29 81 0 10 -7
24 -15 31 -8 7 -15 19 -15 26 0 8 -4 14 -9 14 -14 0 -22 -29 -15 -55 3 -12 1
-26 -5 -29 -6 -4 -11 -22 -11 -40 0 -18 -8 -44 -19 -57 -15 -20 -17 -32 -11
-69 9 -51 28 -110 41 -124 5 -6 9 -20 9 -33 0 -15 10 -28 29 -37 16 -9 31 -13
34 -10 13 13 69 -10 102 -42 20 -19 38 -34 41 -34 3 0 43 -23 88 -51 71 -43
86 -57 105 -98 11 -26 21 -56 21 -67 0 -11 7 -29 15 -40 11 -15 15 -58 15
-204 1 -179 10 -258 23 -200 3 14 9 61 12 104 11 137 10 136 66 136 46 0 49
-2 57 -32 6 -23 5 -39 -3 -51 -18 -26 -4 -74 38 -135 19 -29 39 -67 42 -84 4
-18 21 -57 36 -87 16 -30 29 -61 29 -69 0 -9 8 -25 19 -36 10 -12 21 -33 25
-49 5 -23 2 -29 -18 -37 -28 -10 -56 -47 -56 -73 0 -19 -53 -47 -91 -47 -13 0
-30 -6 -38 -14 -9 -8 -29 -17 -46 -20 -26 -5 -37 0 -78 39 -53 50 -94 61 -83
23 3 -13 6 -26 6 -30 0 -12 30 -9 30 2 0 6 7 10 15 10 8 0 15 -5 15 -10 0 -6
-7 -13 -15 -16 -8 -4 -15 -11 -15 -18 0 -11 -32 -36 -47 -37 -5 0 -10 9 -13
20 -5 20 -5 20 -30 0 -23 -17 -23 -20 -8 -29 16 -10 14 -15 -17 -59 -19 -27
-35 -53 -35 -59 0 -12 -125 -114 -165 -135 -16 -8 -44 -18 -62 -21 -22 -5 -33
-14 -38 -33 -7 -29 13 -162 27 -178 11 -13 128 112 128 137 0 11 5 16 10 13 6
-4 8 -16 4 -27 -5 -16 -2 -19 13 -16 11 2 19 13 21 29 2 15 13 32 28 39 32 17
41 7 20 -24 -17 -28 -21 -71 -7 -80 5 -4 19 10 31 30 17 26 21 45 17 74 -3 21
-1 42 4 47 6 6 6 20 -1 37 -14 38 -13 56 4 50 16 -6 31 12 17 20 -21 13 31 77
124 154 21 18 30 20 41 11 8 -7 42 -12 77 -13 40 -1 66 -6 73 -15 8 -11 15
-11 30 -3 18 11 18 12 -3 18 -28 8 -30 24 -4 24 44 0 109 40 159 96 61 69 65
100 27 181 -34 74 -47 123 -32 123 7 0 20 11 30 25 19 27 12 53 -30 111 -13
17 -23 36 -23 41 0 6 -7 16 -15 23 -8 7 -15 19 -15 28 0 8 -8 24 -17 35 -10
10 -27 38 -38 60 -11 23 -36 52 -55 65 -36 24 -105 124 -116 168 -4 14 -22 55
-41 92 -87 166 -163 322 -163 333 0 7 -6 20 -14 28 -8 9 -26 45 -41 81 -15 36
-31 69 -36 75 -5 5 -9 27 -9 50 0 30 -6 47 -26 65 -14 14 -36 36 -50 49 l-24
24 0 -64z m541 -959 c10 -6 19 -21 19 -34 0 -13 7 -29 15 -36 8 -7 15 -20 15
-30 0 -10 7 -21 16 -24 10 -4 13 -13 10 -24 -4 -12 1 -26 14 -37 13 -12 20
-31 20 -56 0 -21 5 -41 10 -44 6 -3 10 -14 10 -23 -1 -31 -45 35 -75 111 -15
40 -34 76 -41 80 -8 4 -14 21 -14 37 0 38 -9 60 -26 60 -8 0 -11 6 -8 15 7 18
9 18 35 5z m-556 -1050 c9 -15 -34 -70 -55 -70 -22 0 -17 29 11 59 22 23 35
26 44 11z"/>
<path d="M8070 7865 c0 -8 5 -15 10 -15 6 0 10 7 10 15 0 8 -4 15 -10 15 -5 0
-10 -7 -10 -15z"/>
<path d="M5760 7861 c0 -12 29 -35 36 -28 11 10 -5 37 -21 37 -8 0 -15 -4 -15
-9z"/>
<path d="M3120 7840 c0 -19 11 -26 23 -14 8 8 -3 34 -14 34 -5 0 -9 -9 -9 -20z"/>
<path d="M5590 7821 c0 -14 44 -74 58 -79 8 -2 5 12 -10 42 -19 40 -48 62 -48
37z"/>
<path d="M5822 7813 c2 -5 12 -25 21 -46 10 -21 25 -41 33 -44 9 -3 20 -16 25
-29 9 -27 29 -32 29 -9 0 8 -9 20 -20 27 -11 7 -20 22 -20 33 0 39 -24 75 -48
75 -13 0 -22 -3 -20 -7z"/>
<path d="M2457 7803 c-12 -11 -8 -22 12 -33 11 -5 22 -6 25 -1 7 11 -28 43
-37 34z"/>
<path d="M3955 7783 c-4 -19 -2 -31 9 -39 12 -8 16 -29 16 -76 0 -35 7 -90 15
-121 8 -32 15 -68 15 -81 0 -13 7 -29 15 -36 8 -7 15 -23 15 -35 0 -20 -6 -23
-53 -27 -29 -2 -73 -14 -98 -26 -67 -32 -73 -30 -64 25 4 26 13 60 21 75 8 15
14 35 14 45 0 10 7 27 15 37 8 11 15 39 15 62 0 24 5 46 10 49 13 8 13 85 0
85 -5 0 -19 -20 -31 -44 -11 -24 -29 -52 -40 -62 -10 -9 -19 -28 -19 -42 0
-13 -6 -38 -14 -55 -17 -40 -43 -147 -50 -207 -3 -32 -11 -49 -27 -60 -52 -34
-81 -65 -104 -111 -29 -56 -31 -69 -11 -69 8 0 36 27 61 60 61 79 75 78 75 -2
0 -35 4 -69 9 -77 9 -15 11 -9 27 97 12 84 21 98 87 130 104 50 136 62 167 62
26 0 33 -6 51 -47 12 -27 26 -56 30 -65 14 -29 12 -28 -48 8 -79 47 -116 46
-177 -7 -37 -33 -46 -47 -46 -74 0 -18 -6 -38 -14 -44 -10 -8 -16 -47 -21
-125 -7 -103 -5 -116 14 -154 27 -52 45 -62 119 -62 68 0 101 19 122 72 7 18
19 40 26 48 24 29 44 124 44 206 0 64 3 83 15 88 19 7 20 77 1 114 -7 15 -16
47 -20 72 -4 24 -12 50 -17 56 -6 7 -14 37 -19 66 -16 97 -56 228 -78 251 -12
13 -22 33 -22 45 0 31 -27 27 -35 -5z m68 -650 c19 -11 4 -31 -28 -37 -22 -4
-47 -20 -67 -41 -17 -19 -35 -32 -39 -29 -17 10 -9 43 11 49 22 7 26 25 9 42
-23 23 1 35 55 28 28 -4 54 -9 59 -12z m-43 -179 c11 -12 10 -18 -4 -32 -20
-20 -49 -6 -54 27 -3 17 2 21 21 21 14 0 30 -7 37 -16z"/>
<path d="M8486 7784 c-8 -22 4 -40 15 -23 11 18 11 39 0 39 -5 0 -12 -7 -15
-16z"/>
<path d="M3090 7726 c0 -8 5 -18 10 -21 6 -3 10 1 10 9 0 8 -4 18 -10 21 -5 3
-10 -1 -10 -9z"/>
<path d="M5675 7720 c-8 -13 15 -24 27 -12 6 6 4 11 -6 15 -8 3 -18 2 -21 -3z"/>
<path d="M8564 7708 c-54 -87 -68 -153 -25 -114 18 17 20 16 26 -3 3 -12 10
-21 15 -21 18 0 21 41 4 75 -9 19 -14 44 -11 55 6 23 2 26 -9 8z"/>
<path d="M8066 7701 c-4 -5 -3 -17 0 -26 5 -13 8 -14 15 -3 5 7 9 19 9 26 0
14 -16 16 -24 3z"/>
<path d="M3790 7675 c-7 -8 -18 -15 -26 -15 -7 0 -29 -29 -49 -65 -20 -35 -49
-78 -65 -95 -16 -17 -34 -47 -41 -68 -6 -20 -24 -53 -40 -72 -51 -66 -79 -142
-79 -215 0 -36 -4 -74 -10 -84 -6 -12 -5 -29 2 -49 10 -24 9 -42 0 -76 -8 -33
-9 -53 -1 -73 11 -29 29 -176 33 -274 3 -63 20 -135 47 -196 24 -54 39 -121
32 -140 -3 -8 0 -18 7 -23 6 -4 10 -16 8 -26 -4 -16 -6 -15 -16 8 -6 14 -16
29 -21 33 -6 3 -11 18 -11 33 -1 15 -9 45 -20 67 -11 22 -19 50 -20 62 0 12
-6 26 -14 30 -14 8 -86 174 -86 199 0 17 -48 69 -57 61 -3 -4 -1 -17 5 -30 6
-12 14 -47 17 -77 9 -77 34 -159 61 -202 13 -20 25 -56 27 -80 2 -31 16 -63
50 -113 25 -38 51 -75 57 -82 5 -7 10 -19 10 -27 0 -9 9 -21 21 -28 12 -7 36
-36 54 -64 28 -44 40 -53 80 -63 38 -10 49 -17 60 -46 8 -18 19 -36 25 -40 5
-3 10 -16 10 -27 0 -12 14 -49 32 -83 18 -36 28 -69 25 -79 -9 -22 -40 -20
-63 5 -10 12 -40 32 -66 45 -26 13 -56 34 -67 45 l-20 22 4 -74 c4 -65 7 -75
32 -95 31 -25 65 -34 125 -34 25 0 41 -5 44 -15 4 -8 15 -15 26 -15 18 0 19 4
13 50 -4 29 -3 50 2 50 19 0 103 -114 103 -140 0 -4 -11 -11 -25 -14 -35 -9
-31 -26 5 -26 17 0 30 5 30 10 0 6 21 10 46 10 38 0 45 3 42 18 -2 10 -14 18
-29 20 -17 2 -31 13 -38 30 -7 15 -37 63 -67 108 -30 44 -54 87 -54 96 0 8
-18 47 -41 86 -35 60 -48 74 -99 101 -41 22 -61 40 -68 60 -6 16 -23 38 -39
48 -33 21 -53 45 -47 55 11 18 32 5 62 -37 17 -25 38 -45 45 -45 8 0 24 -13
37 -30 26 -34 40 -31 40 9 0 26 -25 68 -62 105 -26 26 -22 46 9 46 24 0 25 2
11 18 -8 9 -19 29 -26 45 -6 15 -16 27 -22 27 -5 0 -10 7 -10 15 0 28 -40 94
-70 117 -20 14 -28 28 -25 39 4 13 0 18 -17 21 -23 3 -34 28 -24 54 5 13 11
12 43 -7 21 -12 63 -45 93 -74 52 -48 107 -82 117 -71 3 3 -33 44 -79 93 -87
92 -104 120 -133 218 -9 33 -21 70 -26 83 -5 13 -9 37 -9 55 0 18 -9 47 -20
65 -24 39 -25 58 -5 66 21 8 21 118 0 136 -7 6 -17 31 -20 54 -8 48 10 100 50
148 14 16 28 42 31 56 4 15 21 52 38 82 43 74 53 98 61 142 3 20 9 38 13 40 4
2 15 20 24 41 10 20 24 37 33 37 8 0 15 9 15 20 0 24 -13 26 -30 5z m-163
-1521 c-9 -9 -28 6 -21 18 4 6 10 6 17 -1 6 -6 8 -13 4 -17z"/>
<path d="M3110 7659 c-19 -34 -9 -64 23 -67 32 -4 35 13 12 58 -18 36 -21 36
-35 9z"/>
<path d="M8457 7673 c-4 -3 -7 -17 -7 -30 0 -33 24 -24 28 10 3 26 -7 35 -21
20z"/>
<path d="M6685 7623 c-33 -30 -36 -35 -16 -30 18 4 31 -2 54 -24 35 -36 51
-33 55 8 2 24 -1 33 -17 38 -12 3 -21 13 -21 20 0 26 -15 23 -55 -12z"/>
<path d="M7244 7645 c21 -16 32 -13 21 4 -3 6 -14 11 -23 11 -15 -1 -15 -2 2
-15z"/>
<path d="M5720 7635 c-15 -18 5 -28 47 -23 l28 3 -31 17 c-28 15 -34 16 -44 3z"/>
<path d="M5391 7608 c0 -7 4 -22 9 -33 7 -17 9 -15 9 13 1 17 -3 32 -9 32 -5
0 -10 -6 -9 -12z"/>
<path d="M1448 7605 c-4 -6 -3 -26 1 -45 5 -27 8 -30 12 -15 7 25 -4 74 -13
60z"/>
<path d="M7104 7599 c-10 -17 13 -36 27 -22 12 12 4 33 -11 33 -5 0 -12 -5
-16 -11z"/>
<path d="M3074 7575 c-7 -18 14 -47 27 -39 5 3 9 16 9 30 0 27 -27 34 -36 9z"/>
<path d="M4855 7553 c-4 -21 -10 -49 -15 -63 -5 -14 -11 -53 -13 -88 -7 -82
-18 -95 -74 -86 -27 4 -43 2 -43 -4 0 -6 -3 -17 -6 -25 -5 -15 38 -67 56 -67
19 0 10 -28 -10 -33 -11 -3 -20 -10 -20 -16 0 -14 27 -14 35 -1 11 17 23 11
29 -14 3 -14 20 -38 37 -56 26 -26 34 -29 46 -18 13 10 15 29 10 107 -5 63 -2
117 7 165 24 121 27 203 10 221 -26 25 -43 18 -49 -22z"/>
<path d="M5785 7580 c-3 -5 -2 -17 3 -26 8 -14 10 -14 21 0 13 15 8 36 -9 36
-5 0 -12 -4 -15 -10z"/>
<path d="M8365 7560 c-7 -12 2 -30 15 -30 5 0 14 9 20 20 9 17 8 20 -9 20 -11
0 -23 -4 -26 -10z"/>
<path d="M6565 7549 c-8 -21 -1 -396 8 -405 4 -4 10 -4 14 -1 6 7 6 293 0 369
-4 42 -14 59 -22 37z"/>
<path d="M8540 7516 c0 -39 12 -52 29 -32 15 18 4 66 -15 66 -9 0 -14 -12 -14
-34z"/>
<path d="M7370 7524 c-11 -13 -9 -20 18 -47 26 -25 34 -29 44 -18 11 10 10 15
-4 25 -10 7 -18 23 -18 35 0 25 -22 28 -40 5z"/>
<path d="M3057 7514 c-8 -8 3 -34 14 -34 5 0 9 9 9 20 0 19 -11 26 -23 14z"/>
<path d="M6136 7511 c-8 -12 4 -41 16 -41 5 0 15 -15 23 -32 7 -18 25 -49 40
-68 14 -19 37 -58 50 -87 14 -28 30 -55 36 -58 5 -4 14 -17 20 -28 5 -12 13
-29 18 -37 5 -8 17 -41 26 -73 13 -43 14 -62 6 -70 -18 -18 -14 -143 5 -162
13 -13 16 -35 15 -110 0 -53 3 -97 9 -100 6 -3 10 -19 10 -35 0 -16 4 -31 9
-34 4 -3 11 -35 15 -72 4 -37 13 -82 21 -102 8 -19 15 -49 15 -68 0 -18 5 -36
11 -39 23 -15 26 -51 11 -120 -19 -89 -20 -117 -4 -122 6 -3 12 1 12 7 0 7 7
28 17 47 14 30 15 48 5 146 -6 62 -10 121 -10 132 0 11 -9 56 -21 99 -11 44
-21 95 -21 115 0 37 -24 225 -41 323 -5 31 -7 74 -3 96 4 25 2 42 -5 46 -6 4
-11 15 -11 25 0 16 -43 107 -93 196 -13 22 -35 53 -50 69 -15 16 -27 37 -27
46 0 10 -7 23 -15 30 -8 7 -25 30 -37 51 -21 38 -41 49 -52 30z"/>
<path d="M1770 7495 c0 -8 7 -15 15 -15 9 0 12 6 9 15 -4 8 -10 15 -15 15 -5
0 -9 -7 -9 -15z"/>
<path d="M3115 7499 c-4 -5 -4 -21 -1 -34 9 -36 -3 -57 -29 -51 -14 4 -28 -1
-39 -13 -16 -17 -16 -20 0 -48 17 -29 17 -30 -5 -52 -16 -16 -21 -30 -17 -46
4 -14 -1 -30 -14 -45 -21 -25 -26 -50 -10 -50 6 0 10 -7 10 -16 0 -10 -6 -14
-15 -10 -20 7 -19 -13 1 -35 15 -17 21 -86 14 -164 -3 -35 13 -109 27 -132 16
-25 19 -193 5 -235 -16 -45 -7 -357 12 -443 10 -44 22 -109 27 -145 8 -69 37
-225 47 -250 4 -10 7 -7 10 10 2 14 12 33 22 42 16 15 18 30 15 84 -2 36 -8
71 -14 77 -6 6 -11 24 -11 41 0 16 -8 38 -17 48 -18 20 -25 139 -11 190 7 23
12 25 35 19 14 -4 30 -15 35 -24 4 -9 13 -25 18 -34 6 -10 14 -28 20 -40 7
-17 18 -23 39 -23 16 0 58 -15 94 -34 57 -30 94 -41 135 -37 29 2 8 20 -49 41
-81 31 -135 85 -182 185 -21 44 -44 93 -52 108 -19 37 -19 87 1 115 8 12 13
26 10 30 -12 20 11 67 35 72 13 3 26 15 28 25 2 11 9 24 17 28 21 12 17 35 -8
43 -15 4 -24 2 -27 -7 -2 -7 -19 -27 -37 -43 -18 -16 -36 -42 -39 -58 -4 -18
-16 -33 -31 -38 -14 -6 -28 -19 -33 -31 -13 -36 -21 2 -10 47 15 66 11 184 -6
190 -8 4 -15 10 -15 16 0 5 4 7 9 4 5 -3 11 4 15 17 8 32 8 33 -19 65 -25 30
-30 58 -42 237 -4 66 -2 83 11 94 9 7 16 27 16 43 0 16 6 39 14 51 11 16 12
33 6 67 -6 33 -5 47 5 55 17 13 32 105 17 105 -6 0 -14 -5 -17 -11z"/>
<path d="M7054 7496 c-3 -8 -4 -25 -1 -38 4 -21 4 -20 6 5 0 15 6 27 11 27 6
0 10 5 10 10 0 15 -20 12 -26 -4z"/>
<path d="M8070 7481 c0 -22 16 -36 24 -22 8 12 -3 41 -15 41 -5 0 -9 -9 -9
-19z"/>
<path d="M5927 7454 c15 -24 17 -25 24 -8 9 25 2 34 -22 34 -19 0 -19 -1 -2
-26z"/>
<path d="M8485 7469 c-10 -15 4 -61 15 -54 13 8 13 65 1 65 -6 0 -13 -5 -16
-11z"/>
<path d="M4320 7436 c0 -7 -9 -20 -19 -27 -28 -21 -35 -103 -10 -125 11 -9 19
-23 19 -30 0 -18 51 -64 72 -64 47 0 61 61 28 123 -11 20 -20 52 -20 71 0 29
-5 37 -32 50 -38 19 -38 19 -38 2z"/>
<path d="M8567 7436 c-10 -25 3 -66 19 -66 18 0 18 40 1 64 -13 18 -14 18 -20
2z"/>
<path d="M5913 7403 c-18 -7 -16 -24 5 -39 26 -20 34 -17 30 13 -3 27 -14 35
-35 26z"/>
<path d="M6086 7401 c-7 -10 3 -253 10 -260 3 -3 14 0 24 7 27 16 50 15 50 -3
0 -8 5 -15 10 -15 6 0 10 -8 10 -18 0 -10 14 -34 30 -52 27 -30 30 -31 30 -12
0 11 -4 23 -9 26 -5 3 -12 21 -15 40 -4 20 -16 41 -30 50 -16 10 -26 29 -31
56 -4 23 -18 60 -31 83 -13 23 -24 54 -24 69 0 28 -14 45 -24 29z"/>
<path d="M7740 7381 c0 -12 2 -21 4 -21 2 0 12 -3 21 -6 13 -5 16 -2 13 17 -4
31 -38 39 -38 10z"/>
<path d="M4512 7370 c-12 -10 -28 -20 -35 -23 -22 -7 13 -57 95 -139 84 -84
119 -96 92 -33 -12 30 -12 35 3 43 15 9 14 12 -5 40 -12 16 -22 37 -22 45 0
19 -38 47 -63 47 -10 0 -21 9 -24 20 -7 24 -12 25 -41 0z"/>
<path d="M8101 7313 c0 -42 3 -52 9 -38 12 28 12 95 0 95 -6 0 -10 -25 -9 -57z"/>
<path d="M8512 7300 c-2 -78 16 -110 61 -110 21 0 22 4 22 70 0 69 -1 71 -23
65 -17 -4 -24 0 -32 20 -17 44 -27 27 -28 -45z"/>
<path d="M5044 7343 c-58 -11 -92 -94 -101 -243 -5 -103 -5 -106 26 -172 41
-87 89 -130 134 -121 65 12 127 100 141 203 10 67 10 79 0 155 -6 51 -14 67
-50 109 -36 41 -101 80 -124 74 -3 0 -15 -3 -26 -5z m84 -113 c12 -16 22 -41
22 -55 0 -15 5 -35 10 -46 8 -13 7 -31 -1 -59 -15 -48 -33 -47 -37 1 -7 88
-26 104 -78 64 l-34 -26 0 35 c0 26 9 44 38 75 20 22 42 40 48 40 5 1 20 -12
32 -29z m-15 -233 c13 -9 16 -20 11 -44 -10 -51 -56 -54 -75 -6 -18 48 23 80
64 50z"/>
<path d="M6867 7303 c-9 -9 -9 -105 1 -118 10 -14 67 -11 86 4 25 21 30 67 9
95 -13 19 -27 25 -54 26 -20 0 -39 -3 -42 -7z"/>
<path d="M96 7201 c-4 -5 -1 -21 5 -35 10 -20 9 -28 -5 -41 -19 -19 -20 -35
-5 -68 8 -18 16 -22 40 -19 23 3 30 0 38 -19 4 -13 4 -37 0 -53 -6 -20 -4 -36
7 -55 l15 -26 -6 32 c-4 19 -2 34 5 38 8 5 10 28 5 74 -3 36 -8 86 -10 111 -3
41 -5 45 -31 48 -16 2 -34 8 -41 13 -7 7 -13 6 -17 0z"/>
<path d="M8545 7123 c-4 -15 -10 -36 -16 -45 -16 -30 -11 -174 6 -188 20 -16
19 -66 0 -74 -13 -5 -15 -21 -13 -83 3 -88 23 -101 23 -16 0 46 4 56 33 82 25
24 32 38 32 68 0 21 3 48 6 61 4 13 2 22 -5 22 -6 0 -11 -16 -11 -35 0 -43
-11 -45 -28 -5 -13 29 -12 32 15 58 28 25 30 31 29 102 l-1 75 -32 3 c-28 3
-33 0 -38 -25z m55 -78 c0 -15 -38 -40 -47 -31 -7 7 26 46 39 46 4 0 8 -7 8
-15z"/>
<path d="M6297 7133 c-7 -11 10 -40 18 -31 4 4 3 14 -3 24 -5 9 -12 12 -15 7z"/>
<path d="M7547 7113 c-5 -27 7 -53 24 -53 15 0 22 50 9 65 -18 22 -27 18 -33
-12z"/>
<path d="M6843 7117 c5 -15 76 -27 83 -15 8 13 5 15 -44 21 -30 4 -42 2 -39
-6z"/>
<path d="M2937 7060 c-10 -36 -8 -102 2 -96 14 9 21 61 12 92 l-7 29 -7 -25z"/>
<path d="M7094 7039 c-8 -14 11 -33 25 -25 11 7 4 36 -9 36 -5 0 -12 -5 -16
-11z"/>
<path d="M6755 7020 c-4 -6 5 -10 19 -10 14 0 26 5 26 10 0 6 -9 10 -19 10
-11 0 -23 -4 -26 -10z"/>
<path d="M7010 7005 c0 -17 5 -25 13 -22 6 2 12 12 12 22 0 10 -6 20 -12 23
-8 2 -13 -6 -13 -23z"/>
<path d="M2170 6985 c-6 -8 -9 -23 -6 -33 4 -11 1 -31 -5 -46 -10 -21 -9 -29
4 -44 10 -10 17 -24 17 -30 0 -20 21 -24 34 -6 10 13 10 24 2 46 -8 21 -7 33
2 48 17 27 15 44 -6 63 -23 21 -26 21 -42 2z"/>
<path d="M6580 6985 c-16 -19 -6 -46 15 -39 16 7 21 39 6 48 -5 3 -14 -1 -21
-9z"/>
<path d="M1044 6969 c-11 -18 13 -34 31 -19 8 7 15 16 15 21 0 13 -38 11 -46
-2z"/>
<path d="M2918 6940 c-12 -29 -18 -110 -7 -110 5 0 12 6 15 14 7 19 0 114 -8
96z"/>
<path d="M8320 6925 c0 -30 29 -34 47 -6 14 23 8 31 -24 31 -18 0 -23 -5 -23
-25z"/>
<path d="M7530 6924 c0 -9 7 -14 17 -12 25 5 28 28 4 28 -12 0 -21 -6 -21 -16z"/>
<path d="M6571 6894 c-1 -31 22 -74 34 -62 3 3 2 14 -3 25 -6 10 -15 29 -20
43 l-11 25 0 -31z"/>
<path d="M6987 6913 c-12 -11 -8 -21 12 -26 14 -3 17 -11 14 -31 -4 -21 -2
-26 15 -26 28 0 35 15 16 31 -9 7 -20 23 -25 36 -9 23 -20 29 -32 16z"/>
<path d="M2750 6875 c0 -8 5 -15 10 -15 6 0 10 7 10 15 0 8 -4 15 -10 15 -5 0
-10 -7 -10 -15z"/>
<path d="M6910 6865 c0 -17 2 -18 24 -9 23 9 20 24 -4 24 -11 0 -20 -7 -20
-15z"/>
<path d="M8125 6850 c-6 -27 -2 -86 7 -96 11 -10 19 86 9 103 -8 16 -10 15
-16 -7z"/>
<path d="M4450 6845 c-15 -18 -4 -74 17 -82 24 -9 34 11 27 55 -7 43 -22 53
-44 27z"/>
<path d="M1616 6833 c-4 -9 -2 -21 4 -27 7 -7 10 -2 10 17 0 31 -5 34 -14 10z"/>
<path d="M5275 6810 c-3 -5 -19 -11 -35 -15 -17 -4 -30 -10 -30 -15 0 -18 -58
-28 -106 -19 -52 10 -79 6 -69 -11 8 -12 172 -14 179 -1 3 4 28 6 55 3 47 -4
50 -3 65 26 9 17 16 33 16 36 0 8 -70 4 -75 -4z"/>
<path d="M750 6796 c0 -9 7 -16 16 -16 17 0 14 22 -4 28 -7 2 -12 -3 -12 -12z"/>
<path d="M595 6787 c-4 -10 -5 -21 -1 -24 10 -10 18 4 13 24 -4 17 -4 17 -12
0z"/>
<path d="M960 6770 c0 -18 4 -29 10 -25 6 3 10 15 10 25 0 10 -4 22 -10 25 -6
4 -10 -7 -10 -25z"/>
<path d="M2876 6780 c-8 -33 -2 -257 7 -266 4 -4 7 1 8 12 8 180 8 248 0 262
-8 15 -10 13 -15 -8z"/>
<path d="M2212 6754 c2 -22 8 -38 13 -36 15 3 12 65 -3 70 -10 3 -13 -6 -10
-34z"/>
<path d="M1619 6769 c-9 -27 -4 -159 6 -161 14 -4 23 141 9 160 -9 12 -12 12
-15 1z"/>
<path d="M7022 6768 c-14 -14 -16 -28 -2 -28 5 0 14 9 20 20 12 22 1 27 -18 8z"/>
<path d="M6580 6760 c0 -5 7 -10 15 -10 8 0 15 5 15 10 0 6 -7 10 -15 10 -8 0
-15 -4 -15 -10z"/>
<path d="M2037 6734 c-14 -14 -7 -25 13 -22 12 2 21 8 21 13 0 12 -24 18 -34
9z"/>
<path d="M3792 6723 c2 -12 14 -19 36 -21 28 -3 33 0 30 15 -2 12 -14 19 -36
21 -28 3 -33 0 -30 -15z"/>
<path d="M1347 6724 c-10 -11 -9 -122 2 -129 18 -11 31 63 18 101 -7 19 -16
32 -20 28z"/>
<path d="M3950 6720 c-8 -5 -25 -10 -37 -10 -14 0 -23 -6 -23 -15 0 -9 9 -15
24 -15 26 0 86 30 86 43 0 10 -32 9 -50 -3z"/>
<path d="M1197 6696 c-4 -15 -6 -31 -2 -34 10 -10 16 6 13 35 l-3 28 -8 -29z"/>
<path d="M160 6649 c-13 -8 -13 -10 0 -19 21 -14 30 -12 30 4 0 20 -13 27 -30
15z"/>
<path d="M6594 6510 c1 -81 5 -129 11 -127 6 1 9 35 8 82 -1 44 -2 101 -2 128
-1 26 -5 47 -10 47 -5 0 -8 -58 -7 -130z"/>
<path d="M3000 6600 c0 -11 5 -20 10 -20 6 0 10 9 10 20 0 11 -4 20 -10 20 -5
0 -10 -9 -10 -20z"/>
<path d="M8130 6590 c0 -11 5 -20 10 -20 6 0 10 9 10 20 0 11 -4 20 -10 20 -5
0 -10 -9 -10 -20z"/>
<path d="M1404 6566 c-9 -24 12 -44 28 -28 10 10 8 16 -5 29 -15 15 -17 15
-23 -1z"/>
<path d="M5357 6546 c-4 -9 -18 -14 -35 -14 -17 1 -42 -9 -57 -21 -15 -11 -41
-21 -56 -21 -31 0 -36 -9 -16 -29 10 -10 7 -11 -15 -6 -22 6 -28 4 -28 -9 0
-9 -19 -35 -42 -56 -35 -34 -48 -40 -84 -40 -46 0 -58 -8 -45 -29 9 -13 -12
-66 -30 -76 -15 -10 -10 -45 6 -45 8 0 15 6 15 14 0 8 9 18 20 21 13 4 20 15
20 31 0 13 5 24 11 24 10 0 32 18 90 73 11 9 24 17 29 17 6 0 10 4 10 9 0 5
12 14 28 20 34 14 58 29 100 64 18 15 38 27 44 27 6 0 19 7 29 16 23 21 57 10
69 -22 6 -15 18 -24 30 -24 14 0 24 -10 31 -29 10 -27 40 -46 53 -33 3 3 6 16
6 28 0 13 5 26 10 29 6 3 10 13 10 21 0 19 -37 18 -48 -2 -6 -11 -14 -14 -22
-9 -10 6 -9 11 4 21 20 14 12 38 -10 30 -16 -6 -64 13 -64 26 0 14 -58 9 -63
-6z"/>
<path d="M170 6540 c0 -5 7 -10 15 -10 8 0 15 5 15 10 0 6 -7 10 -15 10 -8 0
-15 -4 -15 -10z"/>
<path d="M1617 6538 c-3 -8 -2 -21 3 -27 11 -19 23 5 12 25 -8 14 -10 14 -15
2z"/>
<path d="M7689 6522 c-13 -10 -32 -22 -42 -25 -24 -9 -12 -27 16 -27 25 0 97
45 97 60 0 17 -46 11 -71 -8z"/>
<path d="M7873 6523 c-18 -7 -16 -20 3 -27 19 -7 57 11 49 25 -6 10 -31 11
-52 2z"/>
<path d="M2163 6505 c-33 -14 -48 -43 -17 -31 9 3 20 6 24 6 5 0 14 9 20 20 6
11 9 20 8 20 -2 -1 -18 -7 -35 -15z"/>
<path d="M2480 6480 c0 -13 48 -36 56 -27 4 4 1 13 -6 22 -14 17 -50 20 -50 5z"/>
<path d="M3271 6463 c-1 -17 4 -35 9 -38 12 -7 12 22 0 50 -7 17 -9 15 -9 -12z"/>
<path d="M7576 6454 c-8 -22 -8 -24 8 -24 12 0 26 20 26 36 0 12 -29 2 -34
-12z"/>
<path d="M2048 6455 c-9 -9 3 -54 18 -66 11 -9 14 -8 14 4 0 8 7 17 15 21 20
7 19 32 -1 40 -19 7 -39 8 -46 1z"/>
<path d="M1613 6414 c-3 -8 -1 -20 6 -27 8 -8 11 -4 11 16 0 30 -7 35 -17 11z"/>
<path d="M1785 6401 c-3 -11 1 -33 9 -48 12 -23 16 -25 21 -11 9 24 2 71 -12
75 -6 2 -14 -5 -18 -16z"/>
<path d="M5310 6406 c0 -9 7 -16 16 -16 9 0 14 5 12 12 -6 18 -28 21 -28 4z"/>
<path d="M1943 6400 c-26 -11 -57 -65 -47 -83 4 -7 16 -18 26 -25 10 -7 18
-19 18 -27 0 -21 102 -105 127 -105 13 0 23 6 23 14 0 16 -42 46 -66 46 -9 0
-27 11 -40 26 -35 37 -34 106 2 139 l27 25 -24 -1 c-13 0 -34 -4 -46 -9z"/>
<path d="M7430 6382 c-26 -12 -36 -25 -38 -45 -5 -43 -37 -72 -100 -93 -31
-10 -63 -23 -71 -28 -15 -12 -81 -8 -97 5 -11 9 -52 -26 -42 -36 11 -12 87 -7
131 9 26 9 62 16 80 16 26 0 45 12 98 64 36 35 76 78 88 95 21 29 21 31 4 31
-10 0 -34 -8 -53 -18z"/>
<path d="M5537 6363 c-3 -15 -8 -35 -11 -43 -3 -8 1 -24 9 -35 14 -17 17 -18
31 -3 12 12 14 24 7 58 -10 51 -28 62 -36 23z"/>
<path d="M8525 6380 c-8 -13 -1 -24 14 -19 6 3 7 10 2 18 -6 10 -10 10 -16 1z"/>
<path d="M120 6366 c-13 -13 -12 -37 0 -56 7 -12 12 -8 21 18 6 17 17 32 25
32 8 0 14 4 14 9 0 12 -48 9 -60 -3z"/>
<path d="M2243 6372 c-16 -5 -20 -11 -14 -21 7 -10 -1 -31 -25 -68 -34 -53
-36 -73 -10 -73 23 0 46 36 46 73 0 21 5 37 11 37 14 0 38 30 39 48 0 13 -12
14 -47 4z"/>
<path d="M4462 6371 c-22 -14 11 -21 99 -21 64 0 79 3 79 15 0 12 -16 15 -82
15 -46 0 -89 -4 -96 -9z"/>
<path d="M5245 6371 c-7 -12 12 -24 25 -16 11 7 4 25 -10 25 -5 0 -11 -4 -15
-9z"/>
<path d="M8105 6369 c-10 -15 3 -25 16 -12 7 7 7 13 1 17 -6 3 -14 1 -17 -5z"/>
<path d="M2455 6334 c-10 -25 -12 -41 -6 -47 16 -16 41 12 41 44 0 43 -18 44
-35 3z"/>
<path d="M1616 6233 c3 -65 8 -120 10 -122 2 -2 4 50 4 117 0 74 -4 122 -10
122 -6 0 -8 -43 -4 -117z"/>
<path d="M5363 6335 c-3 -9 -3 -19 1 -22 8 -9 37 18 30 28 -8 14 -24 11 -31
-6z"/>
<path d="M6596 6342 c-3 -5 -1 -22 4 -38 8 -29 8 -29 9 9 1 36 -3 45 -13 29z"/>
<path d="M3414 6329 c-3 -6 -1 -16 5 -22 8 -8 11 -5 11 11 0 24 -5 28 -16 11z"/>
<path d="M2510 6315 c0 -19 24 -30 41 -19 9 5 7 11 -6 21 -24 17 -35 17 -35
-2z"/>
<path d="M2030 6296 c0 -14 5 -28 10 -31 6 -4 10 7 10 24 0 17 -4 31 -10 31
-5 0 -10 -11 -10 -24z"/>
<path d="M174 6297 c-3 -10 -4 -33 -1 -52 7 -44 -18 -71 -29 -31 -7 29 -19 34
-27 12 -10 -25 4 -58 23 -53 9 2 25 0 34 -5 13 -7 16 -4 16 13 0 12 7 30 16
40 16 18 16 22 -11 69 -12 21 -15 22 -21 7z"/>
<path d="M7060 6296 c0 -10 33 -36 46 -36 14 0 21 29 7 31 -5 0 -18 2 -30 5
-13 2 -23 2 -23 0z"/>
<path d="M5300 6275 c0 -9 5 -15 11 -13 6 2 11 8 11 13 0 5 -5 11 -11 13 -6 2
-11 -4 -11 -13z"/>
<path d="M2876 6271 c-9 -14 -10 -207 -1 -221 18 -29 25 0 25 98 0 103 -9 148
-24 123z"/>
<path d="M6603 6205 c0 -33 2 -45 4 -27 2 18 2 45 0 60 -2 15 -4 0 -4 -33z"/>
<path d="M8583 6204 c-12 -13 -25 -41 -29 -61 -3 -21 -12 -45 -19 -53 -7 -8
-15 -46 -17 -83 -2 -57 0 -70 15 -78 21 -12 22 -32 2 -49 -17 -14 -20 -56 -4
-65 5 -4 14 -18 19 -31 5 -13 16 -24 25 -24 23 0 19 -47 -5 -60 -30 -16 -44
-48 -29 -66 6 -8 20 -12 29 -9 11 3 20 -1 24 -10 3 -8 12 -15 19 -15 17 0 31
132 18 176 -11 40 -12 142 0 150 14 8 11 45 -3 43 -7 -1 -28 -1 -45 0 -26 1
-34 6 -39 26 -3 14 -3 37 0 51 5 20 11 24 27 19 17 -6 20 -3 16 12 -3 10 -9
35 -13 57 -5 30 -4 38 7 34 8 -3 16 -18 19 -34 7 -39 17 -20 21 40 4 56 -6 64
-38 30z m17 -324 c0 -29 -4 -40 -15 -40 -20 0 -29 23 -21 55 11 42 36 31 36
-15z"/>
<path d="M5007 6187 c-3 -7 -2 -19 3 -26 5 -9 9 -8 14 5 4 9 3 21 -2 26 -6 6
-12 4 -15 -5z"/>
<path d="M2335 6181 c-7 -12 -5 -13 66 -36 62 -20 100 -15 79 10 -7 8 -27 15
-46 15 -18 0 -36 5 -39 10 -8 13 -52 13 -60 1z"/>
<path d="M4914 6175 c-8 -21 6 -41 17 -24 12 19 11 39 -1 39 -6 0 -13 -7 -16
-15z"/>
<path d="M7000 6170 c-12 -8 -11 -10 8 -10 12 0 22 5 22 10 0 13 -11 13 -30 0z"/>
<path d="M2124 6159 c-7 -12 24 -69 37 -69 6 0 13 9 16 20 6 22 23 26 40 9 15
-15 55 7 51 29 -3 14 -16 17 -71 18 -37 0 -70 -3 -73 -7z"/>
<path d="M6894 6145 c-3 -13 -15 -27 -25 -30 -29 -9 -24 -35 7 -35 18 0 28 6
31 20 3 12 19 28 36 36 23 12 27 18 16 25 -28 17 -58 10 -65 -16z"/>
<path d="M3152 6109 c2 -26 10 -46 20 -53 21 -13 36 0 20 16 -7 7 -12 27 -12
45 0 23 -5 33 -16 33 -12 0 -14 -9 -12 -41z"/>
<path d="M5101 6128 c-11 -28 -6 -38 20 -38 16 0 20 6 17 27 -4 34 -26 41 -37
11z"/>
<path d="M3868 6098 c9 -18 17 -44 18 -58 1 -23 21 -57 95 -168 16 -23 33 -59
38 -80 19 -79 40 -112 86 -134 25 -12 47 -19 50 -16 7 6 -12 43 -32 66 -15 16
-17 32 -3 32 5 0 16 -13 24 -29 16 -29 70 -81 86 -81 5 0 15 12 22 28 7 15 23
31 36 37 22 10 29 29 13 39 -4 3 -11 19 -14 36 -4 17 -13 30 -21 30 -15 0 -48
55 -39 64 8 8 63 -23 63 -35 0 -6 6 -9 14 -6 19 7 86 -12 109 -32 10 -8 45
-17 77 -19 33 -2 60 -8 60 -13 0 -5 24 -21 54 -36 30 -14 57 -35 59 -45 7 -25
61 -24 87 2 11 11 20 24 20 28 0 18 -73 42 -125 42 -51 0 -55 2 -55 24 0 33
-16 42 -84 50 -33 4 -65 11 -72 17 -7 6 -39 17 -71 24 -72 17 -299 132 -410
209 -45 31 -87 56 -92 56 -5 0 -2 -15 7 -32z m242 -147 c0 -5 12 -14 28 -19
15 -6 38 -20 51 -30 24 -19 24 -20 4 -30 -33 -18 -123 33 -123 69 0 12 7 19
20 19 11 0 20 -4 20 -9z m130 -196 c0 -25 -14 -34 -24 -16 -8 12 3 41 15 41 5
0 9 -11 9 -25z"/>
<path d="M6595 6065 c-7 -56 -8 -787 0 -847 2 -15 6 -31 9 -37 3 -5 9 -51 12
-102 5 -77 3 -95 -9 -104 -12 -8 -17 -33 -18 -93 -2 -45 0 -84 3 -88 17 -16
28 13 28 70 0 45 4 67 16 77 12 10 15 34 13 133 -1 71 -8 134 -15 152 -13 30
-22 458 -16 714 2 52 -1 115 -6 140 l-8 45 -9 -60z"/>
<path d="M120 6094 c0 -8 8 -14 18 -14 29 0 51 -22 54 -55 2 -25 -1 -31 -19
-33 -15 -2 -23 -10 -23 -22 0 -27 11 -50 24 -50 35 1 67 115 45 163 -10 23
-18 26 -55 25 -30 0 -44 -5 -44 -14z"/>
<path d="M7940 6078 c-20 -34 -26 -58 -12 -58 15 1 39 26 46 48 4 12 12 22 17
22 5 0 9 5 9 10 0 24 -42 8 -60 -22z"/>
<path d="M5470 6080 c-11 -11 -20 -26 -20 -33 0 -8 -11 -20 -25 -27 -28 -15
-36 -46 -9 -36 9 3 20 6 25 6 5 0 9 8 9 18 0 10 14 26 30 35 30 18 39 40 20
52 -5 3 -18 -3 -30 -15z"/>
<path d="M4920 6076 c0 -8 5 -18 10 -21 6 -3 10 -15 10 -26 0 -11 14 -32 30
-46 43 -36 41 -70 -5 -79 -19 -3 -39 -12 -46 -20 -7 -8 -30 -14 -58 -14 -26 0
-56 -7 -67 -15 -10 -8 -29 -15 -41 -15 -27 0 -40 -19 -22 -31 18 -11 98 0 126
17 34 21 53 17 53 -10 0 -14 4 -36 10 -51 5 -14 12 -58 15 -98 3 -39 10 -88
15 -107 13 -48 115 -170 142 -170 5 0 23 -13 40 -30 16 -16 34 -30 39 -30 19
0 8 29 -21 57 -37 34 -38 51 -5 63 46 18 29 33 -29 26 -45 -5 -56 -3 -71 14
-10 11 -24 20 -32 20 -8 0 -13 12 -13 31 0 17 -5 40 -12 52 -6 12 -13 64 -14
116 -3 72 -7 97 -19 104 -24 13 -18 36 15 55 16 9 30 22 30 29 0 6 15 11 36
10 19 -1 38 4 42 10 4 6 18 14 32 18 37 11 73 42 59 50 -6 4 -16 2 -22 -4 -18
-18 -25 -13 -19 15 4 22 2 25 -19 22 -19 -2 -25 -10 -27 -35 -2 -18 -8 -33
-13 -33 -24 0 -69 32 -69 49 0 10 -7 24 -15 31 -8 7 -15 18 -15 26 0 7 -9 18
-19 24 -26 13 -31 13 -31 -4z"/>
<path d="M5033 6075 c-3 -9 -3 -18 0 -22 10 -10 37 6 37 22 0 20 -29 20 -37 0z"/>
<path d="M5157 6073 c-4 -3 -7 -15 -7 -25 0 -22 23 -24 41 -2 10 13 10 17 -2
25 -17 11 -24 11 -32 2z"/>
<path d="M7350 6065 c-7 -8 -25 -15 -41 -15 -34 0 -39 -22 -13 -58 17 -25 11
-42 -14 -42 -22 0 -74 -48 -69 -63 2 -7 16 -13 31 -15 15 -2 36 -12 47 -23 10
-10 29 -19 40 -19 20 0 21 -4 16 -55 -3 -30 -3 -55 0 -55 9 0 33 33 49 67 9
21 19 30 28 27 17 -6 65 25 66 42 0 6 -7 17 -16 25 -11 9 -14 22 -9 46 6 33
-16 84 -52 121 -7 7 -13 18 -13 23 0 15 -36 10 -50 -6z m36 -122 c12 -44 11
-47 -24 -54 -30 -6 -32 -5 -26 15 23 74 36 84 50 39z"/>
<path d="M4856 6041 c-4 -5 3 -15 14 -21 11 -6 20 -19 20 -30 0 -22 15 -34 31
-25 7 5 5 11 -5 18 -8 7 -16 23 -18 37 -3 25 -31 39 -42 21z"/>
<path d="M6738 6036 c-22 -16 -23 -36 -3 -36 19 0 65 29 65 41 0 14 -43 10
-62 -5z"/>
<path d="M2900 5996 c0 -19 -2 -41 -6 -49 -7 -19 43 -77 67 -77 24 0 24 0 -5
54 -14 25 -27 59 -31 76 -9 41 -25 38 -25 -4z"/>
<path d="M8610 6005 c0 -21 30 -31 40 -14 11 17 3 29 -21 29 -10 0 -19 -7 -19
-15z"/>
<path d="M3327 5993 c-4 -3 -7 -12 -7 -20 0 -15 26 -18 34 -4 7 11 -18 33 -27
24z"/>
<path d="M2185 5981 c-3 -5 -1 -12 5 -16 13 -8 50 3 50 16 0 12 -47 12 -55 0z"/>
<path d="M6495 5979 c-10 -15 3 -25 16 -12 7 7 7 13 1 17 -6 3 -14 1 -17 -5z"/>
<path d="M6085 5927 c5 -19 0 -31 -22 -51 -32 -30 -28 -29 -73 -15 -51 16
-171 39 -201 39 -14 0 -40 -11 -59 -25 -28 -20 -45 -25 -97 -25 -53 0 -63 -3
-63 -17 0 -17 29 -50 57 -66 16 -10 116 29 138 53 22 24 71 26 122 5 19 -8 62
-15 94 -15 43 0 60 -4 67 -16 14 -26 32 -7 32 35 0 20 4 41 9 47 15 15 17 66
3 71 -9 4 -11 -2 -7 -20z"/>
<path d="M6271 5928 c-1 -22 -39 -48 -69 -48 -19 0 -23 -5 -20 -22 2 -18 11
-24 36 -26 34 -3 40 -18 22 -52 -8 -15 -6 -21 9 -30 11 -5 22 -10 24 -10 11 0
16 109 8 155 -5 28 -9 42 -10 33z"/>
<path d="M143 5903 c-17 -6 -16 -28 1 -42 11 -9 15 -8 20 5 14 36 7 49 -21 37z"/>
<path d="M241 5897 c-1 -11 -11 -33 -23 -49 -17 -25 -19 -34 -10 -49 7 -10 12
-25 12 -33 0 -16 -34 -31 -50 -21 -5 3 -10 -1 -10 -9 0 -11 10 -16 34 -16 28
0 36 -5 44 -27 l10 -28 1 34 c1 18 6 50 12 70 8 28 7 49 -5 91 -8 30 -15 47
-15 37z"/>
<path d="M2850 5868 c0 -19 2 -20 10 -8 13 19 13 30 0 30 -5 0 -10 -10 -10
-22z"/>
<path d="M3206 5883 c-16 -16 -3 -45 29 -64 19 -12 35 -27 35 -35 0 -16 13
-35 43 -62 10 -9 43 -40 72 -68 30 -28 71 -60 92 -71 60 -30 93 -54 93 -69 0
-24 48 -66 76 -66 45 0 50 19 6 27 -56 9 -69 23 -75 79 -3 27 -2 44 2 39 9
-13 76 -53 90 -53 14 0 7 46 -12 83 -18 33 -56 72 -64 64 -4 -4 -1 -13 5 -19
7 -7 12 -21 12 -31 0 -17 -5 -19 -32 -13 -18 3 -38 13 -44 21 -26 35 -114 123
-128 128 -8 3 -17 1 -19 -6 -3 -7 -20 3 -42 26 -21 20 -44 37 -50 37 -7 0 -20
9 -31 21 -23 26 -49 40 -58 32z"/>
<path d="M1615 5871 c-4 -7 -4 -24 0 -39 l7 -27 9 23 c10 27 -3 63 -16 43z"/>
<path d="M1306 5839 c-46 -31 -55 -51 -24 -57 9 -2 19 6 23 17 5 15 17 20 63
23 31 2 66 8 76 13 16 7 18 5 14 -13 -4 -12 -2 -22 2 -22 18 0 20 21 4 45 -25
38 -95 35 -158 -6z"/>
<path d="M5439 5847 c-15 -12 -46 -88 -56 -138 -3 -15 1 -30 9 -37 11 -9 21
-1 51 35 37 46 42 65 31 122 -7 34 -11 36 -35 18z"/>
<path d="M2862 5829 c2 -7 10 -15 17 -17 8 -3 12 1 9 9 -2 7 -10 15 -17 17 -8
3 -12 -1 -9 -9z"/>
<path d="M3480 5827 c0 -8 7 -18 16 -21 11 -4 14 -1 12 11 -4 21 -28 30 -28
10z"/>
<path d="M6482 5822 c-27 -8 -62 -58 -62 -89 0 -32 28 -29 41 4 6 16 16 35 23
43 11 13 29 52 23 49 -1 -1 -12 -4 -25 -7z"/>
<path d="M1474 5795 c-11 -28 4 -45 41 -45 43 0 46 19 6 43 -36 21 -40 21 -47
2z"/>
<path d="M7597 5786 c-25 -23 -26 -26 -12 -52 15 -29 26 -18 22 21 -2 21 18
25 61 11 19 -6 22 -4 22 18 0 23 -4 26 -34 26 -21 0 -42 -9 -59 -24z"/>
<path d="M1614 5768 c-5 -7 -7 -89 -6 -181 3 -135 0 -178 -13 -217 -16 -48
-13 -90 6 -90 5 0 9 13 9 29 0 16 6 33 13 40 11 8 13 56 12 216 -2 113 -5 208
-8 211 -3 3 -9 -1 -13 -8z"/>
<path d="M4787 5744 c-17 -18 -6 -35 21 -32 16 2 27 9 27 18 0 16 -36 26 -48
14z"/>
<path d="M5510 5720 c-13 -25 -5 -40 21 -40 14 0 19 7 19 30 0 35 -23 41 -40
10z"/>
<path d="M1270 5720 c-11 -7 -12 -14 -3 -32 6 -13 18 -40 27 -60 10 -21 23
-38 31 -38 7 0 18 -15 25 -34 17 -53 41 -69 89 -61 23 4 41 11 41 16 0 5 0 12
0 16 0 4 -16 6 -34 5 -27 -3 -37 1 -46 17 -6 12 -17 21 -24 21 -27 0 -46 34
-39 73 3 20 10 37 14 37 5 0 9 7 9 15 0 8 -9 15 -21 15 -11 0 -28 4 -38 9 -10
6 -23 6 -31 1z"/>
<path d="M4335 5720 c-3 -5 -3 -25 0 -43 8 -39 -20 -133 -41 -141 -18 -7 -18
-26 -1 -26 22 0 47 34 47 63 0 23 4 27 30 27 40 0 48 24 21 60 -11 16 -21 38
-21 50 0 21 -24 28 -35 10z"/>
<path d="M7256 5694 c-33 -28 -37 -36 -26 -49 7 -8 23 -15 36 -15 14 0 33 -6
44 -12 26 -16 40 1 40 49 0 25 -6 36 -27 47 -27 13 -30 12 -67 -20z"/>
<path d="M6760 5688 c-23 -38 -24 -44 -10 -53 6 -3 13 2 17 12 3 10 15 25 26
34 11 9 17 21 13 28 -12 19 -25 13 -46 -21z"/>
<path d="M1567 5693 c-11 -10 -8 -43 3 -43 15 0 24 30 13 41 -5 5 -12 6 -16 2z"/>
<path d="M3160 5688 c0 -16 19 -38 33 -38 4 0 7 10 5 22 -3 25 -38 39 -38 16z"/>
<path d="M1407 5656 c-4 -9 5 -21 19 -31 22 -14 25 -14 31 1 4 11 -1 22 -12
30 -24 18 -32 18 -38 0z"/>
<path d="M170 5596 c0 -35 13 -55 25 -36 3 5 15 10 26 10 30 0 22 -44 -9 -48
-15 -2 -22 -9 -20 -20 6 -30 32 -23 51 14 18 37 14 84 -8 84 -7 0 -18 7 -25
15 -22 26 -40 18 -40 -19z"/>
<path d="M2156 5614 c-4 -11 -13 -14 -27 -11 -23 6 -38 -18 -22 -34 14 -14 60
9 66 32 6 24 -9 35 -17 13z"/>
<path d="M4568 5595 c-3 -3 -25 -9 -49 -13 -37 -6 -44 -11 -51 -39 -6 -21 -24
-43 -59 -68 -49 -35 -58 -57 -27 -63 20 -4 108 86 108 110 0 10 7 18 15 18 9
0 18 6 21 14 3 8 18 16 35 20 16 3 29 10 29 16 0 11 -13 14 -22 5z"/>
<path d="M7216 5544 c-10 -14 -16 -32 -14 -41 2 -12 11 -8 36 18 23 24 29 35
20 41 -20 12 -24 10 -42 -18z"/>
<path d="M8606 5561 c-4 -5 -3 -17 0 -26 6 -15 8 -14 25 1 11 9 19 21 19 26 0
11 -37 10 -44 -1z"/>
<path d="M8514 5526 c-8 -32 4 -66 22 -66 8 0 23 -13 32 -30 9 -16 27 -32 39
-35 13 -3 23 -12 23 -20 0 -18 -51 -20 -68 -3 -9 9 -12 -1 -12 -46 0 -53 2
-58 20 -53 11 3 20 1 20 -3 0 -14 30 -40 46 -40 18 0 28 43 16 67 -6 11 -6 42
-1 82 13 91 7 103 -44 99 -38 -3 -42 -1 -45 22 -7 49 -38 66 -48 26z"/>
<path d="M4195 5501 c-3 -5 -1 -12 4 -15 13 -8 71 5 71 15 0 12 -67 11 -75 0z"/>
<path d="M6988 5497 c-7 -7 -21 -16 -30 -20 -10 -3 -18 -11 -18 -17 0 -15 30
-12 36 4 3 8 18 16 35 20 16 3 29 10 29 16 0 14 -36 12 -52 -3z"/>
<path d="M7347 5483 c-4 -3 -7 -15 -7 -25 0 -10 -6 -27 -12 -38 -10 -15 -10
-22 0 -32 6 -6 12 -20 12 -30 0 -22 13 -23 30 -3 10 13 10 19 -4 34 -13 15
-14 23 -5 50 11 31 2 60 -14 44z"/>
<path d="M5247 5474 c-4 -4 -7 -16 -7 -26 0 -20 37 -25 68 -9 9 5 33 14 52 19
l35 11 -45 -1 c-25 -1 -56 2 -70 6 -14 4 -29 4 -33 0z"/>
<path d="M3910 5440 c0 -5 11 -10 24 -10 14 0 28 5 31 10 4 6 -7 10 -24 10
-17 0 -31 -4 -31 -10z"/>
<path d="M7755 5417 c-17 -25 -20 -47 -5 -47 6 0 10 -7 10 -15 0 -20 19 -19
27 1 4 11 13 14 29 10 13 -4 25 -2 26 4 0 5 1 14 2 20 1 5 -16 18 -37 29 -37
19 -37 19 -52 -2z"/>
<path d="M3822 5400 c-29 -17 -59 -30 -67 -30 -15 0 -45 -26 -45 -40 0 -13 71
12 77 27 3 7 13 13 23 13 10 0 23 6 30 14 6 8 21 16 32 18 24 3 38 28 16 28
-7 0 -37 -14 -66 -30z"/>
<path d="M4164 5395 c3 -9 6 -19 6 -21 0 -2 7 -4 16 -4 22 0 13 34 -10 38 -14
3 -17 0 -12 -13z"/>
<path d="M5440 5390 l-25 -19 23 -21 c12 -11 22 -28 22 -36 0 -21 41 -74 57
-74 19 0 16 18 -8 51 -15 21 -20 41 -17 72 3 49 -13 58 -52 27z"/>
<path d="M5363 5393 c-18 -7 -16 -23 2 -23 8 0 15 7 15 15 0 8 -1 15 -2 14 -2
0 -9 -3 -15 -6z"/>
<path d="M3182 5378 c3 -7 13 -15 22 -16 12 -3 17 1 14 10 -3 7 -13 15 -22 16
-12 3 -17 -1 -14 -10z"/>
<path d="M7930 5377 c0 -10 -9 -25 -20 -34 -14 -12 -20 -30 -20 -60 0 -40 12
-63 24 -45 9 14 27 144 21 150 -3 3 -5 -2 -5 -11z"/>
<path d="M214 5358 c-12 -18 26 -39 48 -27 11 6 18 15 16 21 -5 15 -56 19 -64
6z"/>
<path d="M4419 5354 c-9 -11 -22 -14 -42 -10 -25 5 -36 0 -64 -29 -19 -19 -31
-40 -28 -45 10 -16 71 -12 85 5 7 9 19 14 26 11 7 -3 18 2 24 10 7 8 21 14 32
14 14 0 18 5 14 16 -3 9 -6 22 -6 30 0 19 -24 18 -41 -2z"/>
<path d="M3933 5353 c-8 -3 0 -17 24 -39 33 -31 35 -37 25 -59 -13 -27 -14
-28 -80 -45 -31 -8 -46 -18 -52 -36 -7 -18 -17 -24 -39 -24 -27 0 -61 -21 -61
-38 0 -4 -13 -14 -29 -23 -24 -14 -38 -15 -75 -7 -48 10 -76 6 -76 -11 0 -5
13 -9 29 -9 45 1 55 -11 26 -33 -13 -11 -29 -18 -35 -14 -5 3 -18 1 -29 -5
-13 -7 -22 -7 -26 0 -3 6 1 13 9 16 20 8 21 24 1 24 -16 0 -28 -8 -67 -44 -11
-10 -27 -19 -37 -21 -9 -1 -15 -10 -13 -21 3 -15 1 -16 -11 -5 -13 10 -29 6
-96 -27 -67 -34 -78 -42 -66 -52 9 -8 29 -10 50 -7 41 7 43 2 13 -28 -65 -64
-113 -119 -130 -152 -11 -20 -34 -50 -52 -67 -18 -17 -26 -31 -19 -33 18 -6
53 16 53 33 0 15 12 34 43 62 9 9 17 21 17 27 0 5 14 19 30 30 16 11 30 23 30
27 0 6 69 78 75 78 2 0 16 11 31 25 15 14 33 25 40 25 8 0 14 6 14 13 0 16 43
36 104 48 49 9 168 60 196 84 8 7 38 21 65 31 70 26 111 55 107 77 -3 14 4 17
40 17 54 0 72 11 64 38 -10 29 5 34 108 38 50 1 97 3 104 3 14 1 17 71 2 71
-5 0 -10 -8 -10 -19 0 -10 -7 -24 -15 -31 -13 -11 -17 -8 -26 19 -6 17 -18 31
-26 31 -8 0 -26 9 -40 20 -14 11 -30 20 -34 20 -15 0 -10 -22 9 -36 15 -12 15
-15 2 -24 -8 -5 -25 -10 -37 -10 -12 0 -25 -5 -28 -10 -10 -16 -25 -1 -25 24
0 39 -40 64 -77 49z"/>
<path d="M4582 5338 c-16 -16 -15 -28 3 -28 8 0 15 9 15 20 0 23 -2 24 -18 8z"/>
<path d="M7594 5334 c3 -8 1 -25 -5 -36 -9 -17 -8 -23 5 -30 9 -5 16 -13 16
-18 0 -19 65 -100 79 -99 12 0 10 4 -6 16 -13 8 -23 26 -23 39 0 13 -7 27 -17
32 -12 7 -15 18 -10 45 4 26 1 39 -12 51 -22 20 -35 20 -27 0z"/>
<path d="M7710 5318 c0 -13 6 -18 17 -16 24 5 27 25 3 31 -15 4 -20 0 -20 -15z"/>
<path d="M4850 5286 c0 -19 4 -37 9 -41 13 -7 24 30 16 55 -10 32 -25 23 -25
-14z"/>
<path d="M5215 5300 c10 -11 26 -20 35 -20 12 0 20 -11 24 -33 6 -30 10 -33
41 -34 39 -1 44 10 19 45 -17 25 -87 62 -117 62 -19 0 -20 -1 -2 -20z"/>
<path d="M3615 5290 c-3 -5 1 -10 9 -10 8 0 18 5 21 10 3 6 -1 10 -9 10 -8 0
-18 -4 -21 -10z"/>
<path d="M4476 5275 c-11 -8 -31 -15 -44 -15 -18 0 -23 -4 -18 -16 3 -9 6 -22
6 -30 0 -22 20 -17 46 11 13 14 30 25 39 25 22 0 20 -47 -2 -53 -15 -4 -15 -5
2 -6 11 0 31 -8 43 -17 31 -22 50 -12 58 30 5 30 11 36 31 36 13 0 21 4 18 10
-9 14 -42 12 -49 -2 -3 -9 -12 -4 -26 15 -25 31 -72 36 -104 12z"/>
<path d="M5094 5276 c-10 -26 5 -34 57 -30 65 4 72 11 23 20 -22 4 -47 11 -57
16 -12 6 -19 5 -23 -6z"/>
<path d="M3542 5254 c-12 -8 -22 -19 -22 -25 0 -15 30 -10 36 6 4 8 12 15 20
15 8 0 14 5 14 10 0 15 -22 12 -48 -6z"/>
<path d="M4912 5259 c2 -6 8 -10 13 -10 5 0 11 4 13 10 2 6 -4 11 -13 11 -9 0
-15 -5 -13 -11z"/>
<path d="M5015 5260 c-3 -5 0 -19 9 -31 l14 -21 11 20 c6 12 11 25 11 31 0 14
-37 14 -45 1z"/>
<path d="M4734 5244 c5 -13 0 -23 -16 -36 -20 -15 -21 -20 -10 -35 7 -10 15
-26 18 -35 8 -22 43 -33 58 -18 8 8 6 15 -11 28 -16 12 -20 21 -13 31 5 9 5
22 -1 33 -5 9 -8 22 -7 29 2 6 -3 14 -11 17 -10 3 -12 0 -7 -14z"/>
<path d="M7800 5249 c0 -7 -12 -10 -30 -7 -31 5 -38 -4 -20 -25 6 -7 22 -30
36 -51 25 -38 29 -56 32 -154 1 -26 6 -41 12 -37 6 4 10 63 10 146 0 132 -1
139 -20 139 -11 0 -20 -5 -20 -11z"/>
<path d="M1585 5192 c-9 -69 -9 -217 0 -233 16 -25 24 24 24 148 1 125 -12
171 -24 85z"/>
<path d="M4974 5204 c-23 -54 -12 -74 41 -74 31 0 47 -5 54 -17 6 -11 11 -13
11 -5 0 7 12 17 27 23 53 20 57 31 16 45 -21 8 -53 14 -71 14 -25 0 -35 5 -42
25 -13 33 -18 32 -36 -11z"/>
<path d="M240 5199 c0 -6 9 -13 20 -16 23 -6 25 -16 8 -42 -12 -20 -4 -56 11
-47 19 12 23 66 7 91 -17 25 -46 34 -46 14z"/>
<path d="M3802 5193 c4 -21 33 -25 33 -3 0 8 -8 16 -18 18 -14 3 -18 -1 -15
-15z"/>
<path d="M4887 5204 c-11 -11 -8 -92 4 -99 12 -8 49 22 49 39 -1 17 -45 67
-53 60z"/>
<path d="M5337 5183 c-19 -23 -12 -70 14 -84 11 -5 35 -7 54 -3 l35 6 -15 -42
c-17 -49 -12 -64 21 -56 19 5 24 3 24 -14 0 -11 7 -23 15 -26 8 -4 15 -12 15
-20 0 -8 10 -14 25 -14 16 0 25 6 25 15 0 8 -4 15 -10 15 -5 0 -10 6 -10 14 0
7 -7 19 -15 26 -9 7 -15 29 -15 51 0 28 4 39 15 39 8 0 15 5 15 11 0 6 -9 9
-20 6 -15 -4 -20 0 -20 13 0 20 -49 60 -73 60 -9 0 -19 5 -22 10 -10 16 -40
12 -58 -7z"/>
<path d="M8585 5186 c-37 -13 -45 -23 -45 -58 0 -38 17 -44 25 -8 8 36 21 38
52 8 19 -18 26 -20 32 -9 11 17 3 46 -17 64 -13 11 -24 11 -47 3z"/>
<path d="M5207 5169 c-14 -8 -16 -14 -6 -25 12 -15 49 -19 49 -6 0 5 -6 16
-12 25 -10 12 -17 14 -31 6z"/>
<path d="M1860 5160 c0 -5 6 -10 14 -10 8 0 18 5 21 10 3 6 -3 10 -14 10 -12
0 -21 -4 -21 -10z"/>
<path d="M4055 5160 c3 -5 13 -10 21 -10 8 0 14 5 14 10 0 6 -9 10 -21 10 -11
0 -17 -4 -14 -10z"/>
<path d="M7403 5121 c-32 -27 -43 -51 -23 -51 5 0 13 6 17 14 4 7 19 13 32 12
29 -1 36 13 19 36 -12 15 -16 14 -45 -11z"/>
<path d="M7730 5130 c0 -5 7 -10 15 -10 8 0 15 5 15 10 0 6 -7 10 -15 10 -8 0
-15 -4 -15 -10z"/>
<path d="M8378 5113 c-20 -16 -48 -48 -63 -73 -16 -25 -49 -76 -74 -113 -25
-38 -54 -82 -63 -98 -20 -33 -19 -33 43 -43 31 -6 39 -3 53 18 18 28 45 103
46 126 0 8 14 33 30 54 17 22 30 44 30 50 0 5 8 19 18 30 28 33 45 76 28 76
-7 0 -29 -12 -48 -27z"/>
<path d="M3338 5123 c-29 -7 -20 -23 13 -23 19 0 29 4 27 12 -5 14 -17 17 -40
11z"/>
<path d="M1743 5075 c-3 -9 -3 -19 1 -22 8 -9 37 18 30 28 -8 14 -24 11 -31
-6z"/>
<path d="M3262 5078 c-13 -13 -16 -28 -4 -28 4 0 18 9 32 20 23 18 24 20 5 20
-12 0 -26 -5 -33 -12z"/>
<path d="M310 5071 c0 -17 12 -41 21 -41 5 0 9 11 9 25 0 16 -6 25 -15 25 -8
0 -15 -4 -15 -9z"/>
<path d="M5165 5070 c3 -5 13 -10 21 -10 8 0 12 5 9 10 -3 6 -13 10 -21 10 -8
0 -12 -4 -9 -10z"/>
<path d="M5540 5071 c0 -17 82 -113 111 -130 16 -9 29 -19 29 -23 0 -5 5 -8
11 -8 6 0 28 -13 49 -30 21 -16 43 -30 49 -30 22 0 10 20 -36 57 -27 21 -71
61 -99 90 -28 29 -55 53 -61 53 -6 0 -16 7 -23 15 -14 17 -30 20 -30 6z"/>
<path d="M3206 5045 c-3 -9 -22 -23 -41 -31 -19 -8 -35 -19 -35 -24 0 -6 -7
-10 -15 -10 -8 0 -15 -4 -15 -9 0 -21 17 -18 58 10 23 16 46 29 51 29 4 0 13
11 19 25 9 20 9 25 -2 25 -8 0 -17 -7 -20 -15z"/>
<path d="M8630 5036 c-14 -18 -6 -50 13 -44 15 6 22 37 10 49 -6 6 -15 4 -23
-5z"/>
<path d="M8626 4964 c-7 -19 2 -37 15 -29 12 8 12 45 0 45 -5 0 -12 -7 -15
-16z"/>
<path d="M8950 4965 c-22 -27 -29 -85 -15 -125 7 -20 10 -42 6 -49 -5 -7 -6
-23 -4 -36 3 -12 -3 -35 -12 -49 -19 -28 -14 -56 9 -56 15 0 26 21 26 52 0 11
8 22 20 25 19 5 20 14 20 129 0 115 -1 124 -19 124 -10 0 -24 -7 -31 -15z"/>
<path d="M5550 4910 c-22 -16 -23 -20 -8 -25 11 -4 24 0 34 10 25 25 4 37 -26
15z"/>
<path d="M8620 4876 c-6 -24 -10 -51 -8 -60 3 -15 5 -15 26 -1 22 16 29 55 16
89 -10 27 -21 18 -34 -28z"/>
<path d="M1557 4903 c-12 -11 -8 -23 8 -23 8 0 15 7 15 15 0 16 -12 20 -23 8z"/>
<path d="M2980 4900 c0 -13 20 -13 40 0 12 8 9 10 -12 10 -16 0 -28 -4 -28
-10z"/>
<path d="M5457 4893 c-17 -16 -4 -53 30 -86 35 -35 53 -44 65 -31 12 12 -5 43
-26 46 -12 2 -28 17 -38 36 -20 41 -23 44 -31 35z"/>
<path d="M5600 4886 c0 -9 7 -16 16 -16 9 0 14 5 12 12 -6 18 -28 21 -28 4z"/>
<path d="M2150 4865 c-6 -14 -10 -37 -10 -51 0 -20 -5 -24 -29 -24 -17 0 -33
-4 -36 -10 -3 -5 -1 -10 4 -10 6 0 11 -6 11 -13 0 -14 67 -53 76 -45 10 10 13
167 3 173 -5 4 -14 -6 -19 -20z"/>
<path d="M3175 4871 c-3 -5 -18 -12 -33 -16 -15 -4 -38 -20 -52 -36 -14 -17
-47 -52 -73 -78 -49 -49 -63 -68 -93 -131 -9 -19 -27 -57 -40 -85 -28 -55 -33
-124 -19 -234 7 -54 6 -65 -8 -73 -10 -5 -17 -15 -17 -22 0 -8 -7 -27 -15 -42
-8 -16 -15 -38 -15 -49 0 -11 -13 -47 -29 -80 -76 -157 -143 -375 -135 -440 4
-28 -3 -64 -21 -120 -29 -87 -54 -243 -55 -343 0 -43 -5 -68 -15 -78 -16 -16
-21 -84 -6 -84 12 0 21 26 21 59 0 15 9 36 20 46 11 10 20 26 20 37 0 21 19
57 37 73 8 7 9 15 3 25 -8 12 -10 12 -16 -3 -3 -9 -10 -17 -15 -17 -16 0 -9
22 14 46 32 33 53 57 61 71 11 19 -13 56 -31 49 -11 -5 -13 -2 -8 11 4 10 11
43 15 73 12 79 106 346 135 384 17 23 25 46 25 74 0 23 11 67 25 98 14 31 25
65 25 75 0 11 8 27 18 37 10 10 19 27 19 37 1 11 9 54 17 95 8 41 12 79 8 84
-3 5 -5 51 -4 102 0 68 5 100 16 116 9 12 16 32 16 44 0 12 7 27 15 34 8 7 15
17 15 22 0 5 21 32 48 59 26 27 47 57 47 66 0 11 9 19 23 21 12 2 22 10 22 18
0 8 8 14 18 14 10 0 28 13 40 29 18 25 19 30 6 35 -20 8 -22 8 -29 -3z"/>
<path d="M5650 4866 c0 -7 9 -16 21 -19 23 -6 17 -27 -7 -27 -8 0 -14 -4 -14
-9 0 -13 27 -21 46 -14 14 5 16 1 12 -22 -5 -23 1 -36 29 -66 20 -21 44 -41
54 -44 11 -4 19 -12 19 -19 0 -7 8 -20 19 -30 10 -9 26 -34 36 -56 10 -22 22
-40 26 -40 11 0 69 60 69 71 0 6 -13 22 -29 37 -16 15 -34 37 -40 50 -6 12
-18 22 -27 22 -33 0 -95 53 -117 101 -13 28 -68 79 -86 79 -6 0 -11 -6 -11
-14z"/>
<path d="M5921 4843 c-1 -18 4 -33 9 -33 12 0 12 17 0 45 -7 17 -9 15 -9 -12z"/>
<path d="M1558 4844 c-3 -5 -9 -43 -13 -84 -3 -41 -13 -93 -21 -115 -14 -40
-20 -206 -8 -218 4 -3 7 -49 8 -101 2 -62 7 -100 16 -111 10 -12 10 -19 2 -27
-8 -8 -7 -21 4 -46 10 -26 13 -53 8 -93 -4 -32 -3 -66 0 -75 6 -16 9 -16 29 5
12 12 29 27 38 34 23 17 14 98 -12 104 -32 9 -35 50 -5 80 20 20 26 36 26 68
0 23 3 57 7 75 l6 33 -42 -6 c-60 -8 -65 8 -45 140 8 59 18 112 22 117 8 14 2
197 -7 214 -5 8 -11 11 -13 6z m22 -589 c0 -8 -4 -15 -10 -15 -5 0 -10 7 -10
15 0 8 5 15 10 15 6 0 10 -7 10 -15z"/>
<path d="M1750 4840 c-11 -7 -12 -12 -3 -21 14 -14 46 -4 41 13 -6 16 -20 19
-38 8z"/>
<path d="M6526 4826 c-20 -31 -20 -63 -1 -96 8 -14 14 -40 15 -58 0 -20 4 -31
10 -27 6 3 10 19 10 35 0 47 36 60 151 53 51 -3 157 -4 234 -3 211 4 258 3
280 -1 16 -3 21 2 23 23 4 31 25 42 53 28 22 -12 24 -31 7 -48 -10 -10 -10
-15 2 -22 8 -6 21 -8 28 -5 8 3 22 5 31 5 14 0 20 11 25 47 4 29 2 49 -4 53
-6 4 -93 7 -193 8 -100 1 -235 7 -300 14 -91 9 -125 9 -151 0 -18 -7 -40 -12
-48 -12 -9 0 -25 -15 -36 -34 -20 -34 -20 -34 -59 -21 -31 11 -38 18 -35 38 1
13 -4 29 -12 36 -11 9 -17 6 -30 -13z"/>
<path d="M5790 4805 c0 -8 4 -15 8 -15 5 0 24 -13 42 -30 30 -27 60 -39 60
-25 0 3 -18 23 -40 45 -41 41 -70 51 -70 25z"/>
<path d="M8750 4794 c0 -17 22 -14 28 4 2 7 -3 12 -12 12 -9 0 -16 -7 -16 -16z"/>
<path d="M7435 4781 c-3 -2 -5 -19 -5 -37 l0 -32 78 -6 c42 -3 97 -11 122 -17
25 -6 94 -13 153 -15 60 -2 117 -9 127 -14 10 -6 43 -10 73 -10 30 0 68 -5 86
-11 37 -13 45 -8 46 29 0 37 25 35 45 -3 8 -16 19 -33 24 -36 5 -4 -4 -20 -20
-35 -30 -30 -64 -89 -64 -111 0 -7 -14 -54 -30 -104 -33 -98 -33 -119 0 -119
14 0 26 12 38 38 9 20 20 39 24 42 4 3 10 26 13 50 4 25 10 54 15 65 5 11 18
42 30 68 11 26 18 52 14 58 -8 14 14 29 44 29 27 0 28 15 3 95 -20 65 -37 77
-66 45 -21 -24 -71 -26 -130 -6 -23 8 -91 14 -165 15 -69 1 -130 7 -137 13
-12 10 -309 19 -318 9z"/>
<path d="M8837 4774 c-17 -9 -27 -22 -25 -32 4 -22 38 -29 38 -7 0 8 12 20 26
25 14 6 22 14 19 20 -8 14 -25 12 -58 -6z"/>
<path d="M1375 4749 c-4 -6 -4 -13 -1 -16 8 -8 36 5 36 17 0 13 -27 13 -35 -1z"/>
<path d="M8656 4711 c-10 -11 -16 -30 -14 -43 l4 -23 12 26 c6 15 17 29 24 32
9 3 10 8 2 16 -8 9 -15 7 -28 -8z"/>
<path d="M5420 4691 c0 -12 5 -21 10 -21 6 0 10 6 10 14 0 8 -4 18 -10 21 -5
3 -10 -3 -10 -14z"/>
<path d="M2220 4675 c0 -14 5 -25 10 -25 6 0 10 11 10 25 0 14 -4 25 -10 25
-5 0 -10 -11 -10 -25z"/>
<path d="M382 4659 c1 -13 8 -23 13 -21 15 3 12 35 -3 40 -9 3 -13 -3 -10 -19z"/>
<path d="M885 4669 c-4 -6 -5 -13 -2 -16 7 -7 27 6 27 18 0 12 -17 12 -25 -2z"/>
<path d="M1130 4660 c0 -19 3 -21 12 -12 9 9 9 15 0 24 -9 9 -12 7 -12 -12z"/>
<path d="M1778 4646 c-21 -29 -15 -36 29 -36 38 0 39 2 17 35 -20 31 -24 31
-46 1z"/>
<path d="M2000 4655 c0 -8 7 -15 15 -15 8 0 15 -5 15 -10 0 -10 17 -19 70 -35
22 -7 23 -6 8 9 -9 8 -18 19 -20 23 -4 10 -66 43 -79 43 -5 0 -9 -7 -9 -15z"/>
<path d="M8553 4625 c-36 -37 -41 -55 -19 -55 16 0 66 60 66 78 0 19 -13 13
-47 -23z"/>
<path d="M1610 4638 c0 -16 19 -38 33 -38 4 0 7 10 5 22 -3 25 -38 39 -38 16z"/>
<path d="M1100 4594 c-8 -22 -16 -55 -17 -74 -14 -231 -15 -270 -6 -270 9 0
14 19 30 125 10 67 18 195 13 224 l-5 34 -15 -39z"/>
<path d="M6890 4590 c-13 -24 -4 -63 13 -57 15 4 22 77 8 77 -6 0 -15 -9 -21
-20z"/>
<path d="M2700 4590 c0 -5 5 -10 10 -10 6 0 10 -7 10 -16 0 -8 5 -12 10 -9 19
12 11 45 -10 45 -11 0 -20 -4 -20 -10z"/>
<path d="M226 4554 c-3 -8 -1 -25 5 -36 15 -27 34 -8 25 26 -7 29 -21 34 -30
10z"/>
<path d="M1263 4526 c-30 -44 -31 -51 -18 -66 20 -22 19 -144 -1 -161 -8 -6
-14 -21 -14 -34 0 -46 -41 -179 -65 -211 -14 -18 -25 -46 -25 -63 0 -19 -7
-35 -18 -42 -15 -10 -18 -21 -15 -63 3 -28 7 -58 9 -66 8 -24 24 9 24 51 0 40
26 59 80 59 l30 0 0 83 c0 95 16 205 33 225 13 16 12 130 -2 177 -5 20 -4 42
6 67 8 20 13 49 11 65 -3 28 -4 27 -35 -21z"/>
<path d="M3080 4520 c0 -17 -7 -33 -17 -38 -10 -6 -14 -16 -9 -27 6 -16 10
-14 37 16 16 18 27 39 24 47 -3 7 -5 18 -5 23 0 5 -7 9 -15 9 -10 0 -15 -10
-15 -30z"/>
<path d="M6310 4543 c1 -14 27 -43 38 -43 18 0 24 20 12 35 -13 15 -50 21 -50
8z"/>
<path d="M8481 4541 c-8 -5 -17 -29 -21 -52 -4 -24 -10 -51 -14 -59 -5 -12 2
-16 31 -18 36 -2 36 -2 18 18 -22 24 -23 70 -1 85 29 22 18 45 -13 26z"/>
<path d="M87 4533 c-9 -8 -9 -46 -1 -68 10 -24 24 1 24 43 0 30 -9 40 -23 25z"/>
<path d="M1737 4534 c-14 -15 -6 -34 14 -34 14 0 19 5 17 17 -3 18 -20 27 -31
17z"/>
<path d="M2690 4525 c0 -8 4 -15 9 -15 5 0 11 7 15 15 3 9 0 15 -9 15 -8 0
-15 -7 -15 -15z"/>
<path d="M5987 4523 c-13 -12 -7 -32 11 -37 19 -7 62 -76 62 -103 0 -10 7 -27
15 -37 19 -25 19 -45 0 -66 -14 -15 -14 -21 1 -56 l17 -39 9 28 c13 37 32 34
57 -9 22 -37 28 -98 11 -109 -15 -9 -12 -21 8 -41 9 -9 26 -40 36 -68 17 -45
22 -91 36 -316 3 -49 -14 -182 -28 -220 -11 -29 -17 -76 -17 -132 0 -124 -21
-96 -27 37 -3 58 -10 111 -16 118 -5 6 -13 46 -17 87 -4 41 -13 89 -20 105
l-13 30 -2 -45 c-4 -94 2 -183 16 -216 8 -18 14 -62 14 -96 0 -35 5 -79 10
-98 12 -40 23 -174 26 -310 1 -52 2 -107 3 -123 1 -15 10 -35 21 -44 14 -12
20 -30 20 -58 0 -22 6 -49 14 -60 7 -11 16 -45 19 -76 3 -30 15 -77 27 -103
22 -45 22 -48 6 -84 -13 -28 -15 -47 -8 -82 5 -25 7 -165 6 -312 -3 -242 -1
-273 16 -325 11 -32 20 -75 20 -95 0 -46 16 -58 31 -24 15 32 29 24 29 -15 0
-16 4 -29 9 -29 14 0 20 39 14 93 -6 45 -7 48 -20 31 -12 -16 -15 -17 -23 -4
-5 8 -10 27 -10 42 0 15 -4 30 -10 33 -5 3 -10 15 -10 26 0 10 5 19 10 19 6 0
10 -7 10 -15 0 -8 4 -15 8 -15 12 0 13 138 1 146 -7 4 -10 104 -8 288 2 199
-1 287 -9 303 -7 12 -12 30 -12 41 0 11 -8 22 -18 24 -14 4 -18 17 -20 61 -1
30 -9 68 -17 84 -8 15 -15 52 -15 82 0 38 -5 60 -17 74 -15 16 -18 40 -19 141
0 66 -6 145 -13 174 -8 34 -9 58 -2 69 8 15 11 12 18 -17 12 -47 26 -47 41 1
18 58 6 134 -26 164 -28 26 -22 48 13 39 21 -5 25 -1 34 31 7 25 7 55 0 91 -7
37 -7 66 1 94 10 36 13 39 30 30 25 -14 26 2 3 67 -9 26 -18 64 -20 83 -2 19
-6 64 -9 100 -3 35 -12 73 -20 84 -8 11 -14 35 -14 54 0 18 -7 49 -15 69 -8
19 -15 50 -15 67 0 17 -7 44 -15 60 -8 15 -15 45 -15 65 0 20 -7 47 -15 61 -8
14 -17 32 -21 40 -10 22 -36 50 -46 50 -4 0 -8 -7 -8 -15 0 -8 -7 -15 -15 -15
-9 0 -15 9 -15 24 0 13 -16 42 -36 65 -37 41 -45 46 -57 34z"/>
<path d="M5910 4500 c-11 -20 -6 -40 9 -40 5 0 11 8 15 18 3 9 9 23 12 30 10
21 -25 13 -36 -8z"/>
<path d="M6087 4514 c-10 -11 3 -24 24 -24 23 0 25 15 3 24 -19 7 -19 7 -27 0z"/>
<path d="M332 4450 c0 -35 3 -40 24 -40 18 0 25 -7 30 -27 8 -33 23 -55 34
-48 11 7 22 101 14 130 -6 22 -11 25 -54 25 l-49 0 1 -40z"/>
<path d="M6492 4470 c-28 -23 -21 -40 17 -40 31 0 48 29 28 49 -14 14 -18 14
-45 -9z"/>
<path d="M6757 4472 c-21 -23 -22 -42 -2 -42 8 0 15 4 15 10 0 5 13 7 30 4 36
-8 38 1 8 27 -29 23 -31 23 -51 1z"/>
<path d="M985 4460 c-4 -6 -3 -16 3 -22 6 -6 12 -6 17 2 4 6 3 16 -3 22 -6 6
-12 6 -17 -2z"/>
<path d="M1805 4448 c13 -42 26 -113 26 -138 0 -14 0 -80 0 -147 -1 -67 3
-144 8 -170 6 -26 9 -61 9 -78 -1 -16 2 -92 7 -167 l8 -138 -32 0 c-24 0 -34
6 -43 25 -18 40 -28 29 -28 -28 0 -59 23 -107 35 -74 11 27 35 20 46 -13 19
-54 28 -40 58 103 5 21 14 44 20 50 14 14 14 67 0 104 -6 17 -12 146 -15 318
-3 179 -8 291 -14 293 -6 2 -10 -1 -10 -7 0 -6 -4 -11 -10 -11 -5 0 -10 7 -10
15 0 8 5 15 10 15 21 0 8 19 -20 29 -16 5 -30 17 -30 25 0 9 -5 16 -11 16 -7
0 -9 -8 -4 -22z"/>
<path d="M8006 4454 c-3 -9 -6 -24 -6 -34 0 -10 -6 -20 -13 -23 -7 -3 -30 -57
-52 -121 -21 -64 -42 -119 -46 -122 -5 -3 -9 -23 -9 -45 0 -30 -7 -47 -30 -71
-16 -17 -30 -41 -30 -53 0 -13 -7 -36 -15 -51 -8 -16 -15 -43 -15 -61 0 -17
-6 -44 -14 -60 -18 -36 -36 -114 -36 -157 0 -19 -6 -41 -13 -48 -25 -26 -56
-97 -55 -130 0 -18 -5 -69 -10 -113 -7 -57 -7 -92 1 -123 9 -35 9 -47 -6 -71
-10 -18 -17 -50 -17 -84 0 -30 -7 -72 -16 -93 -13 -30 -16 -69 -15 -167 2
-206 20 -240 38 -69 6 59 19 139 27 177 9 39 21 100 26 138 5 37 14 76 20 87
5 10 10 34 10 52 0 19 7 43 15 54 9 12 14 42 15 81 0 34 4 64 9 68 5 3 13 30
16 60 4 31 11 57 15 60 4 2 17 37 30 77 12 40 26 84 32 98 16 38 27 86 42 180
25 152 45 250 57 272 6 12 13 50 14 85 2 35 8 69 13 76 9 10 42 122 42 141 0
13 -18 5 -24 -10z"/>
<path d="M6682 4428 c-19 -19 -14 -48 8 -48 15 0 20 7 20 24 0 30 -12 40 -28
24z"/>
<path d="M3025 4420 c-8 -13 4 -32 16 -25 12 8 12 35 0 35 -6 0 -13 -4 -16
-10z"/>
<path d="M262 4319 c5 -93 3 -102 -13 -106 -15 -4 -19 -15 -19 -50 0 -58 16
-89 36 -72 12 10 19 8 37 -10 13 -11 26 -21 30 -21 10 0 9 64 -2 76 -13 14
-41 151 -41 204 0 54 -7 80 -22 80 -7 0 -9 -36 -6 -101z"/>
<path d="M1974 4407 c-2 -7 2 -42 11 -78 8 -35 15 -89 16 -119 1 -30 5 -68 8
-85 6 -25 9 -20 15 37 5 37 9 103 10 146 1 77 0 80 -27 96 -22 12 -29 13 -33
3z"/>
<path d="M6372 4398 c-7 -7 -12 -21 -12 -31 0 -15 5 -18 21 -14 19 5 20 2 14
-32 -7 -45 -2 -49 92 -61 38 -5 73 -16 89 -29 34 -26 64 -28 64 -2 0 17 -58
71 -77 71 -4 0 -17 14 -28 31 -26 39 -52 54 -69 40 -17 -15 -44 -4 -51 20 -7
22 -25 25 -43 7z"/>
<path d="M7720 4385 c0 -9 9 -15 24 -15 30 0 42 15 20 24 -27 10 -44 7 -44 -9z"/>
<path d="M655 4370 c-3 -6 -3 -42 1 -81 l7 -71 23 24 c40 40 32 138 -12 138
-7 0 -16 -5 -19 -10z"/>
<path d="M5965 4339 c-5 -20 -2 -36 8 -47 7 -9 17 -25 20 -35 11 -29 27 -9 27
31 -1 32 -27 82 -43 82 -3 0 -8 -14 -12 -31z"/>
<path d="M777 4323 c-4 -3 -7 -19 -7 -35 0 -40 24 -31 28 10 3 30 -6 41 -21
25z"/>
<path d="M2647 4303 c-22 -6 -12 -23 13 -23 10 0 23 -8 29 -17 9 -17 10 -17
17 0 6 16 -20 48 -36 46 -3 -1 -13 -3 -23 -6z"/>
<path d="M6650 4305 c0 -2 26 -31 57 -65 52 -54 58 -58 65 -40 4 11 16 20 26
20 27 0 66 45 58 66 -5 13 -9 15 -18 6 -18 -18 -123 -15 -138 3 -11 14 -50 22
-50 10z"/>
<path d="M1 4265 c0 -35 2 -37 11 -19 7 15 7 28 -1 40 -9 16 -10 12 -10 -21z"/>
<path d="M436 4293 c-3 -3 -6 -15 -6 -27 0 -15 -3 -17 -12 -8 -22 22 -29 13
-26 -30 2 -33 7 -43 20 -43 18 0 47 -32 48 -52 0 -6 -8 -9 -20 -6 -17 5 -20 0
-20 -26 0 -18 9 -49 20 -71 11 -22 20 -48 20 -60 0 -11 5 -20 10 -20 6 0 10
-24 11 -52 0 -29 3 -46 5 -38 3 8 15 35 27 60 24 52 26 104 3 128 -8 10 -18
38 -22 62 -4 25 -11 50 -16 57 -5 6 -12 37 -15 68 -6 54 -13 71 -27 58z"/>
<path d="M986 4292 c-9 -16 3 -275 14 -286 15 -15 23 42 15 107 -4 34 -7 84
-6 110 2 50 -11 88 -23 69z"/>
<path d="M8393 4265 c-11 -36 -8 -45 14 -45 8 0 13 12 13 34 0 47 -15 53 -27
11z"/>
<path d="M2667 4243 c-3 -5 -1 -26 3 -48 l8 -40 1 48 c1 45 -2 56 -12 40z"/>
<path d="M8320 4239 c0 -6 5 -20 11 -31 11 -20 12 -21 25 -4 7 10 10 24 7 32
-6 16 -43 19 -43 3z"/>
<path d="M1066 4198 c-7 -34 -3 -44 13 -33 13 7 15 65 2 65 -5 0 -11 -14 -15
-32z"/>
<path d="M7443 4195 c-3 -9 -3 -19 1 -22 7 -7 36 16 36 28 0 15 -30 10 -37 -6z"/>
<path d="M686 4188 c-14 -43 -14 -72 -1 -167 8 -58 21 -157 30 -220 14 -109
19 -130 29 -120 7 7 -13 439 -22 478 -8 36 -29 53 -36 29z"/>
<path d="M5961 4185 c1 -11 6 -42 12 -68 13 -50 34 -62 29 -15 -4 34 -41 111
-41 83z"/>
<path d="M3 4134 c8 -86 13 -109 23 -109 13 0 17 96 5 108 -6 6 -11 19 -11 28
0 10 -5 21 -11 25 -8 4 -9 -11 -6 -52z"/>
<path d="M2548 4172 c-15 -9 -34 -35 -43 -59 -9 -24 -23 -43 -30 -43 -19 0
-24 -10 -36 -82 -15 -91 -16 -140 -8 -253 5 -55 13 -213 18 -351 6 -138 16
-265 22 -283 9 -24 9 -35 0 -44 -13 -13 -15 -76 -3 -95 5 -7 5 -38 0 -70 -5
-31 -13 -86 -18 -122 -19 -131 -36 -216 -48 -237 -6 -12 -12 -37 -12 -56 0
-19 -7 -51 -15 -70 -8 -20 -15 -64 -15 -98 0 -34 -7 -86 -17 -115 l-16 -52 26
-31 c21 -25 24 -37 20 -71 -4 -26 -2 -40 6 -40 7 0 11 28 11 83 1 114 17 267
35 330 8 28 16 64 17 79 1 15 8 30 15 32 7 3 15 28 19 56 4 28 11 53 15 56 5
3 9 22 9 42 0 20 7 51 16 67 21 40 11 257 -16 327 -11 28 -14 50 -8 56 5 5 11
107 14 228 5 199 1 270 -22 418 -7 42 20 161 42 187 8 8 14 27 14 42 0 14 4
36 9 49 5 13 19 46 30 75 12 28 21 54 21 57 0 10 -24 5 -52 -12z m-38 -1383
c0 -10 -4 -19 -10 -19 -5 0 -10 12 -10 26 0 14 4 23 10 19 6 -3 10 -15 10 -26z"/>
<path d="M6112 4144 c4 -21 22 -23 26 -1 2 10 -3 17 -13 17 -10 0 -15 -6 -13
-16z"/>
<path d="M8442 4117 c-24 -25 -20 -37 10 -37 13 0 18 8 18 30 0 36 -1 36 -28
7z"/>
<path d="M1037 4123 c-10 -10 -8 -126 3 -143 5 -8 11 -12 13 -10 4 6 27 131
27 149 0 12 -32 15 -43 4z"/>
<path d="M6820 4121 c0 -6 8 -11 18 -11 9 0 31 -17 49 -37 l32 -38 0 30 c1 17
-3 35 -7 41 -10 16 -92 29 -92 15z"/>
<path d="M6518 4095 c-13 -23 -19 -93 -8 -100 22 -14 31 11 23 61 -5 27 -11
45 -15 39z"/>
<path d="M6682 4088 c-17 -17 -15 -48 3 -48 9 0 18 -7 21 -15 6 -15 34 -21 34
-7 0 4 -11 24 -24 44 -17 29 -25 35 -34 26z"/>
<path d="M6083 4074 c-3 -9 0 -31 7 -48 7 -17 15 -45 17 -63 3 -18 11 -38 19
-44 8 -6 14 -26 14 -43 0 -18 7 -41 15 -52 8 -10 15 -29 15 -41 0 -32 18 -38
26 -8 7 29 -21 131 -42 156 -8 8 -14 29 -14 46 0 18 -6 33 -15 37 -9 3 -15 18
-15 35 0 34 -17 50 -27 25z"/>
<path d="M2634 4056 c-8 -33 5 -74 17 -55 12 19 11 66 -1 74 -5 3 -12 -5 -16
-19z"/>
<path d="M8720 4056 c0 -14 4 -27 9 -30 12 -8 22 20 15 39 -9 23 -24 18 -24
-9z"/>
<path d="M7266 4031 c-9 -15 23 -36 36 -23 5 5 7 15 4 21 -9 13 -33 14 -40 2z"/>
<path d="M350 4013 c0 -12 5 -25 10 -28 13 -8 13 15 0 35 -8 12 -10 11 -10 -7z"/>
<path d="M810 4013 c0 -6 4 -23 10 -37 5 -14 10 -65 11 -112 2 -85 19 -161 32
-147 4 3 7 20 7 38 0 17 5 36 11 42 7 7 5 30 -10 80 -12 39 -21 76 -21 84 0
17 -39 69 -40 52z"/>
<path d="M6020 4003 c0 -12 5 -25 10 -28 13 -8 13 15 0 35 -8 12 -10 11 -10
-7z"/>
<path d="M2275 3962 c-4 -26 -9 -94 -10 -152 -2 -58 -8 -145 -15 -195 -6 -49
-12 -130 -12 -180 0 -52 -6 -103 -14 -120 -7 -16 -15 -61 -18 -100 -11 -152
-27 -292 -37 -324 -9 -25 -8 -43 1 -70 9 -27 9 -48 2 -75 -8 -28 -7 -49 4 -87
9 -28 13 -58 10 -66 -7 -18 22 -123 34 -123 13 0 33 76 37 145 8 115 7 124
-17 150 l-24 25 18 50 c10 28 16 56 13 64 -3 7 0 24 7 37 7 14 12 77 14 154 1
72 6 184 12 249 8 93 8 121 -2 127 -9 6 -7 13 7 29 20 22 22 63 16 372 -2 133
-13 172 -26 90z"/>
<path d="M8516 3899 c-4 -56 -11 -110 -17 -120 -12 -23 -11 -130 1 -149 8 -11
10 -3 9 30 -1 25 7 65 17 90 22 52 27 221 8 240 -8 8 -13 -17 -18 -91z"/>
<path d="M8426 3953 c-9 -10 -7 -73 3 -73 18 0 29 64 12 74 -4 3 -11 3 -15 -1z"/>
<path d="M50 3921 c0 -17 5 -31 10 -31 6 0 10 11 10 24 0 14 -4 28 -10 31 -6
4 -10 -7 -10 -24z"/>
<path d="M931 3920 c0 -33 1 -34 11 -12 8 17 8 26 0 34 -9 9 -12 4 -11 -22z"/>
<path d="M1347 3923 c-11 -39 -19 -163 -10 -163 5 0 19 20 30 45 18 39 19 51
9 85 -14 47 -23 57 -29 33z"/>
<path d="M7030 3916 c0 -3 5 -17 12 -31 12 -27 44 -36 34 -9 -3 9 -6 17 -6 19
0 3 -9 9 -20 15 -11 6 -20 9 -20 6z"/>
<path d="M618 3884 l-12 -25 -17 22 -17 22 -16 -31 c-23 -45 -21 -65 7 -59 26
7 53 -11 66 -44 7 -18 10 -5 10 59 1 45 -1 82 -4 82 -3 0 -11 -12 -17 -26z"/>
<path d="M1250 3886 c0 -14 5 -26 10 -26 6 0 10 9 10 19 0 11 -4 23 -10 26 -6
4 -10 -5 -10 -19z"/>
<path d="M2100 3845 c0 -25 5 -45 10 -45 6 0 10 20 10 45 0 25 -4 45 -10 45
-5 0 -10 -20 -10 -45z"/>
<path d="M7430 3868 c1 -74 42 -96 44 -23 1 34 -2 40 -21 43 -18 3 -23 -1 -23
-20z"/>
<path d="M6080 3816 c0 -25 5 -48 10 -51 6 -4 10 13 10 44 0 28 -4 51 -10 51
-5 0 -10 -20 -10 -44z"/>
<path d="M8395 3811 c-4 -22 -2 -48 3 -58 8 -14 12 -8 17 31 9 61 -10 87 -20
27z"/>
<path d="M925 3829 c-3 -9 -2 -38 3 -65 6 -27 10 -39 11 -27 0 12 6 25 11 28
14 9 12 38 -4 61 -13 17 -15 17 -21 3z"/>
<path d="M435 3788 c-9 -22 4 -43 17 -30 7 7 7 16 0 29 -10 17 -11 17 -17 1z"/>
<path d="M1105 3746 c-8 -40 -1 -163 9 -173 14 -14 20 12 20 90 0 45 -4 91
-11 102 -10 18 -12 16 -18 -19z"/>
<path d="M7470 3750 c-14 -26 2 -50 32 -50 16 0 19 6 16 32 -4 39 -31 49 -48
18z"/>
<path d="M1466 3723 c-3 -3 -6 -31 -6 -62 0 -31 -10 -126 -21 -211 -12 -85
-23 -209 -26 -274 -4 -87 -9 -124 -20 -134 -10 -10 -13 -25 -9 -45 3 -16 6
-37 6 -46 0 -9 8 -17 18 -17 9 0 27 -4 39 -8 20 -6 22 -3 27 36 3 24 7 147 10
273 3 127 10 264 17 305 14 96 -7 210 -35 183z m-11 -734 c0 -19 -6 -25 -27
-27 -26 -3 -28 -1 -28 31 0 18 3 37 7 40 12 13 48 -20 48 -44z"/>
<path d="M1298 3704 c-28 -15 -36 -42 -18 -60 6 -6 6 -34 -1 -78 -5 -37 -7
-138 -5 -223 4 -139 8 -175 20 -162 2 2 6 94 10 203 3 110 10 204 15 210 13
18 21 71 13 99 -7 24 -8 25 -34 11z"/>
<path d="M8370 3698 c-9 -21 -21 -77 -39 -183 -4 -23 -11 -47 -16 -55 -5 -8
-12 -37 -16 -65 -4 -27 -11 -63 -17 -80 -11 -30 -41 -151 -68 -271 -8 -34 -18
-74 -24 -89 -18 -47 -12 -134 11 -166 26 -36 44 -26 53 29 3 20 9 62 13 92 5
30 13 62 18 70 5 8 13 35 17 60 13 79 37 194 48 230 5 19 10 49 10 67 0 18 4
52 10 75 17 74 40 275 34 292 -9 23 -23 20 -34 -6z"/>
<path d="M2125 3700 c-4 -6 -3 -16 3 -22 6 -6 12 -6 17 2 4 6 3 16 -3 22 -6 6
-12 6 -17 -2z"/>
<path d="M5787 3703 c-2 -5 -1 -33 3 -63 l7 -55 2 63 c1 58 -2 73 -12 55z"/>
<path d="M7150 3671 c0 -12 5 -21 10 -21 6 0 10 6 10 14 0 8 -4 18 -10 21 -5
3 -10 -3 -10 -14z"/>
<path d="M485 3631 c-8 -27 11 -54 21 -28 3 9 1 24 -4 33 -9 16 -10 15 -17 -5z"/>
<path d="M2130 3633 c0 -13 5 -23 10 -23 13 0 13 11 0 30 -8 12 -10 11 -10 -7z"/>
<path d="M800 3630 c0 -5 6 -10 14 -10 8 0 18 5 21 10 3 6 -3 10 -14 10 -12 0
-21 -4 -21 -10z"/>
<path d="M956 3601 c-4 -6 -4 -21 0 -33 6 -19 7 -19 16 -5 11 20 -5 57 -16 38z"/>
<path d="M6479 3578 c-3 -62 6 -82 27 -54 19 26 18 62 -2 70 -23 9 -24 8 -25
-16z"/>
<path d="M8496 3588 c-17 -52 -15 -85 4 -103 24 -22 27 -90 5 -122 -8 -12 -17
-52 -20 -90 -2 -37 -11 -86 -19 -108 -8 -22 -15 -71 -16 -110 0 -38 -7 -90
-16 -115 -9 -25 -13 -58 -10 -76 5 -21 2 -35 -9 -44 -22 -18 -36 -77 -25 -106
7 -16 17 -24 34 -24 27 0 47 -21 28 -28 -7 -2 -19 -10 -26 -18 -8 -8 -19 -14
-25 -14 -14 0 -14 -27 -1 -35 18 -11 11 -33 -9 -28 -26 7 -31 -14 -29 -126 1
-87 0 -95 -21 -112 -25 -20 -22 -49 3 -49 28 0 65 80 69 153 3 37 9 73 14 80
18 22 46 186 39 226 -5 30 -2 42 14 56 11 10 20 28 20 39 0 12 7 30 15 40 8
11 15 28 15 38 0 11 12 29 26 42 23 19 25 25 15 44 -14 26 -38 28 -63 5 -25
-23 -35 -8 -19 30 14 32 18 57 25 158 2 31 9 65 14 75 6 11 13 42 17 69 3 28
9 57 12 65 4 8 7 39 7 67 1 49 -1 53 -21 53 -19 0 -23 5 -23 34 0 35 -17 58
-24 34z"/>
<path d="M1642 3438 c-19 -194 -29 -259 -41 -271 -6 -6 -11 -37 -11 -68 0 -31
-6 -74 -13 -95 -23 -65 -29 -106 -14 -102 6 3 15 27 18 54 3 27 11 62 17 77 7
16 12 45 12 65 0 21 6 46 13 57 7 11 18 43 25 70 6 28 19 68 28 90 13 30 17
61 15 120 -3 93 -8 115 -25 115 -9 0 -16 -35 -24 -112z"/>
<path d="M2152 3529 c-7 -11 -11 -24 -8 -27 10 -9 28 15 24 32 -2 14 -5 13
-16 -5z"/>
<path d="M6917 3530 c-3 -13 0 -20 9 -20 8 0 14 9 14 20 0 11 -4 20 -9 20 -5
0 -11 -9 -14 -20z"/>
<path d="M380 3520 c0 -11 5 -20 10 -20 6 0 10 9 10 20 0 11 -4 20 -10 20 -5
0 -10 -9 -10 -20z"/>
<path d="M5790 3380 c0 -84 3 -151 6 -148 7 8 8 288 0 295 -3 4 -6 -63 -6
-147z"/>
<path d="M6950 3441 c0 -17 5 -31 10 -31 6 0 10 11 10 24 0 14 -4 28 -10 31
-6 4 -10 -7 -10 -24z"/>
<path d="M7860 3388 c0 -25 3 -29 10 -18 13 20 13 50 0 50 -5 0 -10 -15 -10
-32z"/>
<path d="M2126 3392 c-2 -4 -1 -23 3 -42 8 -41 44 -50 49 -13 6 41 -34 83 -52
55z"/>
<path d="M6956 3338 c-3 -17 -2 -36 4 -42 7 -7 10 4 10 32 0 50 -5 54 -14 10z"/>
<path d="M1829 3330 c-1 -3 -2 -101 -4 -217 -1 -162 1 -213 10 -213 20 0 34
24 45 71 5 24 12 56 16 71 5 21 2 29 -10 34 -12 4 -16 19 -16 56 0 27 -7 63
-16 79 -9 19 -13 41 -9 59 4 16 2 37 -4 47 -6 10 -11 16 -12 13z"/>
<path d="M7842 3268 c-7 -7 -12 -37 -12 -67 0 -53 0 -54 20 -36 15 13 20 31
20 67 0 49 -7 57 -28 36z"/>
<path d="M7960 3183 c-35 -17 -50 -42 -50 -79 0 -17 -7 -51 -16 -75 -9 -24
-17 -84 -19 -134 -2 -49 -8 -103 -14 -118 -14 -36 -14 -117 -1 -117 6 0 25 16
42 36 31 36 34 36 90 31 l57 -5 7 33 c9 52 2 69 -31 75 -21 4 -31 12 -33 27
-3 19 2 22 40 25 39 3 43 5 43 30 1 18 -5 30 -17 33 -9 4 -20 15 -23 26 -8 25
-25 25 -25 -1 0 -13 10 -24 26 -30 33 -13 27 -32 -15 -42 -17 -5 -34 -15 -38
-23 -6 -18 -37 -19 -51 -2 -14 16 4 97 24 113 8 6 14 30 14 53 0 23 5 62 11
86 15 61 11 74 -21 58z m9 -346 c14 -18 4 -27 -31 -27 -26 0 -37 17 -21 33 11
12 40 8 52 -6z"/>
<path d="M7260 3125 c0 -19 5 -35 10 -35 6 0 10 16 10 35 0 19 -4 35 -10 35
-5 0 -10 -16 -10 -35z"/>
<path d="M987 3134 c-10 -10 -9 -64 2 -64 5 0 11 8 13 18 6 22 -5 56 -15 46z"/>
<path d="M6992 3080 c0 -19 2 -27 5 -17 2 9 2 25 0 35 -3 9 -5 1 -5 -18z"/>
<path d="M2010 3065 c0 -10 7 -15 18 -13 21 4 19 22 -2 26 -10 2 -16 -3 -16
-13z"/>
<path d="M2100 3058 c0 -19 2 -20 10 -8 13 19 13 30 0 30 -5 0 -10 -10 -10
-22z"/>
<path d="M7330 3035 c0 -8 7 -15 15 -15 8 0 15 7 15 15 0 8 -7 15 -15 15 -8 0
-15 -7 -15 -15z"/>
<path d="M786 2928 c-4 -37 -2 -66 4 -72 7 -7 10 2 10 26 0 24 6 40 20 49 20
14 20 14 -4 36 l-23 22 -7 -61z"/>
<path d="M6266 2963 c-4 -9 -2 -21 4 -27 7 -7 10 -2 10 17 0 31 -5 34 -14 10z"/>
<path d="M7299 2941 c-25 -25 -26 -32 -27 -141 -1 -63 -9 -149 -17 -190 -9
-41 -20 -96 -25 -122 -5 -26 -14 -56 -20 -68 -15 -27 -5 -40 31 -40 25 0 33 6
46 38 9 20 17 66 19 102 3 88 12 183 24 255 12 70 13 165 2 181 -5 8 -16 3
-33 -15z"/>
<path d="M6357 2873 c-6 -87 -2 -116 14 -92 10 16 8 179 -2 179 -3 0 -9 -39
-12 -87z"/>
<path d="M1978 2923 c-3 -7 -3 -323 1 -487 1 -86 22 -79 27 9 3 59 10 79 24
70 15 -9 32 34 24 58 -5 12 -7 59 -5 104 1 45 -2 91 -8 102 -9 15 -7 30 5 60
15 37 15 42 -3 65 -17 24 -58 35 -65 19z"/>
<path d="M1687 2904 c-16 -16 -7 -44 14 -44 15 0 20 5 17 22 -3 22 -19 33 -31
22z"/>
<path d="M1530 2846 c0 -19 -4 -38 -10 -41 -15 -9 -12 -25 4 -25 21 0 30 -19
16 -35 -6 -8 -7 -16 -2 -19 5 -3 15 7 22 23 11 27 9 59 -6 114 -9 30 -24 19
-24 -17z"/>
<path d="M8662 2861 c4 -13 18 -16 19 -4 0 4 -5 9 -11 12 -7 2 -11 -2 -8 -8z"/>
<path d="M8603 2833 c-16 -6 -17 -33 -3 -33 11 0 26 28 19 34 -2 2 -10 1 -16
-1z"/>
<path d="M7706 2755 c-3 -9 -6 -38 -6 -63 0 -26 -5 -65 -11 -87 -6 -22 -16
-78 -24 -125 -14 -87 -8 -120 20 -120 22 0 30 20 32 85 1 33 5 112 8 177 4 68
3 123 -2 133 -9 16 -10 16 -17 0z"/>
<path d="M1176 2719 c-19 -95 3 -249 40 -280 12 -10 13 2 9 86 -3 54 -10 104
-15 110 -6 7 -12 34 -13 59 -4 56 -12 67 -21 25z"/>
<path d="M1746 2722 c-3 -5 2 -27 11 -48 l18 -39 3 34 c4 34 -20 73 -32 53z"/>
<path d="M8124 2695 c-3 -13 -4 -30 -1 -37 2 -7 -1 -20 -9 -28 -14 -17 -34
-145 -40 -268 -4 -81 -4 -82 17 -72 17 10 21 8 26 -9 3 -12 9 -21 13 -21 20 0
66 310 50 340 -8 16 -7 20 4 20 7 0 17 7 20 16 13 33 5 54 -24 69 -40 21 -49
19 -56 -10z"/>
<path d="M8516 2692 c-8 -24 3 -54 18 -49 15 5 14 59 -1 64 -6 2 -14 -5 -17
-15z"/>
<path d="M835 2675 c-3 -11 -11 -28 -16 -37 -12 -23 -12 -55 1 -63 18 -11 42
63 32 93 -9 25 -10 25 -17 7z"/>
<path d="M3207 2597 c-7 -93 -4 -203 6 -213 9 -9 9 -13 11 144 2 145 -8 186
-17 69z"/>
<path d="M7980 2636 c-5 -13 -14 -27 -19 -31 -6 -3 -11 -33 -11 -65 0 -36 -5
-60 -12 -62 -7 -3 -13 -32 -14 -79 -3 -67 -1 -72 12 -54 8 11 23 19 33 17 21
-3 31 22 31 80 0 20 4 47 9 60 4 13 12 53 15 91 7 64 7 67 -13 67 -13 0 -25
-9 -31 -24z"/>
<path d="M5817 2636 c-8 -21 4 -126 14 -126 12 0 12 127 0 134 -5 3 -11 0 -14
-8z"/>
<path d="M1807 2624 c-4 -4 -7 -17 -7 -28 0 -12 -7 -30 -15 -40 -20 -26 -19
-31 8 -43 l24 -11 -4 -195 c-3 -126 0 -211 7 -237 6 -23 13 -40 16 -37 3 2 4
101 3 218 -1 118 -1 230 1 249 7 97 5 125 -10 128 -9 1 -19 0 -23 -4z"/>
<path d="M7851 2596 c-17 -26 -21 -50 -21 -112 0 -58 -6 -91 -21 -124 -11 -25
-22 -63 -23 -85 -2 -22 -7 -70 -11 -107 -5 -42 -4 -68 2 -68 17 0 80 231 89
332 3 35 12 82 20 106 29 88 6 125 -35 58z"/>
<path d="M7620 2590 c0 -19 3 -21 12 -12 9 9 9 15 0 24 -9 9 -12 7 -12 -12z"/>
<path d="M804 2536 c-4 -10 -2 -22 4 -28 8 -8 13 -7 18 6 4 10 2 22 -4 28 -8
8 -13 7 -18 -6z"/>
<path d="M1583 2524 c-3 -8 -1 -25 5 -37 10 -20 11 -18 11 16 1 39 -5 48 -16
21z"/>
<path d="M7537 2504 c-28 -34 -30 -64 -5 -64 7 0 21 18 31 39 31 69 18 82 -26
25z"/>
<path d="M8265 2463 c-10 -26 -21 -68 -27 -93 -5 -25 -11 -57 -15 -72 -5 -28
9 -39 22 -17 4 6 16 14 27 18 19 7 21 15 19 107 -1 54 -4 100 -6 102 -1 2 -11
-19 -20 -45z"/>
<path d="M6557 2477 c-9 -15 -17 -35 -17 -46 0 -11 -6 -35 -14 -53 -34 -84
-56 -168 -56 -218 -1 -30 -5 -86 -10 -125 -9 -69 1 -110 16 -69 4 10 15 30 25
44 19 27 48 209 55 345 3 44 10 90 15 102 17 33 6 50 -14 20z"/>
<path d="M1086 2473 c-11 -11 -6 -23 8 -23 8 0 17 4 20 9 7 10 -19 23 -28 14z"/>
<path d="M5846 2459 c-12 -28 -2 -232 12 -237 9 -3 12 21 11 100 -1 108 -11
166 -23 137z"/>
<path d="M6872 2442 c-20 -23 -22 -33 -16 -78 4 -33 2 -54 -5 -58 -6 -4 -11
-14 -11 -22 0 -17 45 -19 56 -3 4 8 9 7 15 -2 13 -20 11 -57 -3 -61 -17 -6 -2
-38 18 -38 12 0 15 6 11 21 -3 12 2 36 11 55 13 29 14 40 4 68 -7 18 -10 46
-6 62 4 21 0 37 -16 57 -26 33 -29 33 -58 -1z"/>
<path d="M2061 2448 c1 -7 5 -24 9 -38 8 -24 8 -24 9 7 1 17 -3 35 -9 38 -5 3
-10 0 -9 -7z"/>
<path d="M7365 2434 c-20 -20 -4 -44 30 -44 12 0 28 -7 35 -15 15 -18 30 -11
30 15 0 10 -15 28 -34 39 -40 25 -40 25 -61 5z"/>
<path d="M2191 2413 c-17 -14 -23 -30 -23 -58 -1 -57 44 -335 54 -335 4 0 9
30 10 68 3 96 4 119 12 197 6 74 -2 136 -20 142 -6 2 -21 -4 -33 -14z"/>
<path d="M7012 2348 c0 -40 3 -93 6 -118 4 -39 6 -42 13 -20 4 14 7 42 8 62 1
20 6 40 11 43 6 3 10 28 10 56 0 45 -2 49 -24 49 -24 0 -24 -2 -24 -72z"/>
<path d="M2050 2362 c0 -6 5 -23 10 -37 9 -23 13 -25 25 -15 16 14 21 50 6 50
-5 0 -16 3 -25 6 -9 3 -16 1 -16 -4z"/>
<path d="M7235 2324 c-18 -14 -37 -21 -47 -18 -10 3 -28 2 -39 -1 -21 -7 -22
-10 -14 -124 14 -188 5 -468 -17 -538 -11 -39 -1 -135 17 -160 13 -17 15 -15
29 19 10 22 18 78 20 140 2 57 10 117 17 133 6 17 16 75 20 130 16 196 36 361
49 393 17 45 2 56 -35 26z"/>
<path d="M1962 2315 c-15 -32 -17 -395 -3 -395 13 0 24 93 25 215 1 79 5 106
20 128 17 25 17 29 2 52 -21 32 -30 31 -44 0z"/>
<path d="M7477 2333 c-15 -14 -5 -32 25 -47 39 -20 38 -20 38 2 0 31 -45 63
-63 45z"/>
<path d="M1222 2279 c2 -39 -2 -54 -15 -64 -21 -15 -23 -65 -2 -65 10 0 15
-10 15 -27 0 -16 5 -35 10 -43 7 -10 10 28 10 118 0 81 -4 132 -10 132 -6 0
-9 -22 -8 -51z"/>
<path d="M410 2313 c0 -5 5 -15 10 -23 8 -12 10 -11 10 8 0 12 -4 22 -10 22
-5 0 -10 -3 -10 -7z"/>
<path d="M7635 2280 c-3 -5 -1 -37 5 -70 12 -66 2 -100 -29 -100 -28 0 -43
-46 -46 -145 -4 -92 8 -95 20 -4 5 40 12 51 43 73 21 14 47 26 59 26 20 0 21
5 19 103 -1 56 -5 108 -9 115 -10 14 -53 16 -62 2z"/>
<path d="M7934 2235 c-7 -30 2 -59 16 -50 13 8 13 62 0 70 -5 3 -12 -6 -16
-20z"/>
<path d="M410 2224 c-10 -26 -14 -68 -23 -279 -6 -147 12 -198 27 -76 7 56 12
61 28 25 10 -26 13 -14 19 101 7 116 5 137 -13 193 -11 34 -22 62 -24 62 -3 0
-9 -12 -14 -26z"/>
<path d="M6843 2222 c-3 -13 -16 -25 -32 -28 -50 -12 -71 -42 -71 -101 0 -29
-4 -53 -9 -53 -17 0 -21 -34 -10 -93 10 -57 9 -62 -11 -77 -31 -23 -25 -94 8
-98 14 -2 24 3 28 15 4 10 15 25 24 33 17 15 40 170 40 273 0 53 12 82 44 108
17 14 19 20 8 31 -10 10 -14 9 -19 -10z"/>
<path d="M8047 2214 c-4 -4 -7 -23 -7 -41 0 -19 -7 -47 -15 -62 -8 -16 -16
-50 -18 -77 -2 -27 -9 -62 -15 -77 -14 -34 -16 -67 -3 -67 5 0 12 13 16 29 4
20 11 28 21 24 10 -4 14 4 14 31 0 30 3 36 18 34 13 -2 18 5 20 37 2 22 9 47
17 55 7 8 15 38 17 65 3 49 3 50 -27 53 -17 2 -34 0 -38 -4z"/>
<path d="M7440 2179 c0 -11 5 -17 10 -14 6 3 10 13 10 21 0 8 -4 14 -10 14 -5
0 -10 -9 -10 -21z"/>
<path d="M5640 2171 c0 -12 5 -21 10 -21 6 0 10 6 10 14 0 8 -4 18 -10 21 -5
3 -10 -3 -10 -14z"/>
<path d="M5876 2150 c-12 -57 -3 -243 12 -248 14 -4 16 159 3 238 l-8 45 -7
-35z"/>
<path d="M7021 2073 c-1 -40 3 -73 8 -73 18 0 21 38 7 91 l-15 54 0 -72z"/>
<path d="M7906 2118 c-3 -13 -8 -36 -11 -53 -14 -68 -22 -115 -19 -115 1 0 14
4 27 9 21 8 25 17 30 79 7 70 3 102 -14 102 -5 0 -11 -10 -13 -22z"/>
<path d="M2310 2053 c0 -21 3 -24 9 -14 5 8 7 20 4 28 -8 21 -13 15 -13 -14z"/>
<path d="M7450 2038 c-11 -23 -20 -51 -20 -63 0 -12 -7 -30 -15 -41 -8 -10
-15 -29 -15 -41 0 -12 -4 -25 -10 -28 -12 -7 -13 -58 -2 -69 4 -4 7 -20 8 -34
2 -98 5 -123 14 -117 6 3 10 37 10 75 0 38 -4 72 -10 75 -15 9 -13 68 3 62 6
-2 11 -18 11 -36 -1 -17 2 -31 7 -31 11 0 23 44 16 62 -2 7 6 36 18 64 23 51
31 149 14 159 -4 3 -17 -13 -29 -37z"/>
<path d="M4774 2029 c-10 -17 23 -46 37 -32 7 7 9 19 6 27 -7 18 -33 21 -43 5z"/>
<path d="M1227 2013 c-11 -10 -8 -43 3 -43 6 0 10 11 10 25 0 26 -2 29 -13 18z"/>
<path d="M4100 1990 c6 -11 15 -18 21 -14 6 4 6 11 -2 20 -17 21 -31 17 -19
-6z"/>
<path d="M7380 1970 c0 -19 3 -21 12 -12 9 9 9 15 0 24 -9 9 -12 7 -12 -12z"/>
<path d="M6549 1968 c-20 -17 -43 -74 -36 -91 3 -7 -1 -36 -8 -63 -17 -66 -18
-67 -16 -86 2 -32 31 -21 31 11 0 47 10 61 41 61 16 0 29 5 29 13 5 155 5 162
-10 165 -9 1 -22 -3 -31 -10z"/>
<path d="M1846 1944 c-4 -17 -3 -41 2 -55 9 -23 10 -23 17 13 4 20 3 44 -3 54
-8 15 -11 13 -16 -12z"/>
<path d="M2204 1925 c-4 -8 3 -33 15 -55 12 -22 21 -50 21 -62 0 -28 16 -13
25 24 5 21 2 30 -14 40 -13 8 -21 23 -21 40 0 30 -17 38 -26 13z"/>
<path d="M1231 1895 c0 -35 2 -37 11 -19 7 15 7 28 -1 40 -9 16 -10 12 -10
-21z"/>
<path d="M7536 1854 c-3 -9 -6 -30 -6 -47 0 -18 -9 -61 -20 -96 -11 -36 -18
-67 -15 -69 10 -10 25 12 31 46 4 20 11 40 17 43 13 9 22 139 9 139 -5 0 -13
-7 -16 -16z"/>
<path d="M5907 1843 c-13 -13 -7 -167 8 -193 9 -16 14 -55 15 -105 0 -88 7
-125 22 -125 6 0 9 42 7 113 l-4 112 33 3 c32 3 46 22 17 22 -9 0 -29 10 -45
22 -27 20 -30 27 -30 77 0 56 -10 87 -23 74z"/>
<path d="M2532 1800 c-18 -15 -22 -28 -22 -74 0 -62 12 -78 33 -44 17 27 31
124 20 131 -5 3 -18 -3 -31 -13z"/>
<path d="M2764 1809 c-7 -12 15 -31 31 -26 6 2 11 11 13 20 4 19 -32 24 -44 6z"/>
<path d="M2913 1793 c-33 -6 -28 -19 8 -27 37 -7 50 -1 42 19 -5 15 -10 16
-50 8z"/>
<path d="M6743 1751 c-3 -11 -15 -21 -27 -23 -26 -4 -35 -47 -13 -63 16 -11
24 -74 33 -273 5 -97 3 -132 -9 -165 -20 -56 -30 -130 -32 -252 -2 -95 12
-195 26 -195 4 0 10 37 14 83 8 95 39 247 59 285 8 15 17 55 21 89 4 37 15 73
26 87 27 34 24 48 -7 40 -29 -8 -47 10 -38 38 3 9 -2 28 -11 42 -14 21 -16 40
-10 113 4 48 11 110 16 137 6 34 6 53 -2 62 -17 20 -40 17 -46 -5z"/>
<path d="M2453 1744 c-3 -8 -1 -20 6 -27 8 -8 11 -4 11 16 0 30 -7 35 -17 11z"/>
<path d="M1256 1708 c-3 -13 -1 -27 4 -32 7 -7 10 1 10 22 0 37 -5 41 -14 10z"/>
<path d="M2401 1700 c0 -33 1 -34 10 -11 6 16 6 28 -1 35 -7 7 -10 -1 -9 -24z"/>
<path d="M6153 1695 c7 -54 25 -98 37 -90 18 11 11 53 -16 92 l-27 38 6 -40z"/>
<path d="M7346 1685 c-7 -38 0 -75 14 -75 5 0 11 9 15 20 7 23 -4 90 -15 90
-4 0 -11 -16 -14 -35z"/>
<path d="M6556 1659 c-10 -22 -31 -55 -46 -72 -15 -18 -30 -50 -34 -72 -4 -22
-12 -45 -17 -51 -6 -7 -4 -24 5 -46 8 -19 13 -44 10 -54 -3 -11 3 -29 15 -43
11 -12 22 -28 25 -34 3 -8 8 -7 15 3 5 8 13 11 17 8 12 -12 19 -302 11 -468
-9 -199 -9 -195 1 -295 4 -44 11 -73 14 -65 16 37 37 587 24 608 -4 6 -2 32 4
57 7 33 7 58 -1 88 -8 27 -11 121 -11 260 1 119 -2 217 -6 217 -5 0 -16 -18
-26 -41z m-6 -301 c0 -16 -3 -19 -11 -11 -6 6 -8 16 -5 22 11 17 16 13 16 -11z"/>
<path d="M6236 1680 c-6 -8 -9 -27 -8 -42 2 -22 -4 -31 -23 -40 -14 -6 -25
-17 -25 -25 0 -18 16 -17 24 2 3 8 12 12 21 9 20 -8 27 13 23 67 -2 32 -6 40
-12 29z"/>
<path d="M6046 1654 c-9 -23 -10 -22 36 -44 78 -37 92 -16 22 32 -46 32 -50
33 -58 12z"/>
<path d="M7000 1639 c0 -18 2 -19 15 -9 8 7 15 16 15 21 0 5 -7 9 -15 9 -9 0
-15 -9 -15 -21z"/>
<path d="M2407 1643 c-16 -15 -6 -33 18 -33 18 0 25 5 25 20 0 20 -28 28 -43
13z"/>
<path d="M980 1620 c0 -11 5 -20 10 -20 6 0 10 9 10 20 0 11 -4 20 -10 20 -5
0 -10 -9 -10 -20z"/>
<path d="M4642 1631 c4 -13 18 -16 19 -4 0 4 -5 9 -11 12 -7 2 -11 -2 -8 -8z"/>
<path d="M2827 1603 c-16 -15 -5 -23 33 -23 29 0 40 4 40 15 0 10 -10 15 -33
15 -19 0 -37 -3 -40 -7z"/>
<path d="M2926 1589 c-26 -30 -14 -44 12 -16 13 14 19 27 15 30 -5 3 -17 -3
-27 -14z"/>
<path d="M2593 1590 c-13 -5 -23 -17 -23 -26 0 -14 7 -15 42 -10 49 8 58 13
58 32 0 16 -42 18 -77 4z"/>
<path d="M5811 1558 c-7 -20 -9 -48 -5 -62 5 -21 1 -28 -20 -37 -14 -7 -26
-17 -26 -23 0 -19 28 -148 34 -153 2 -3 7 12 11 33 3 22 10 53 15 70 6 17 10
40 10 51 0 11 7 26 15 33 21 17 19 73 -4 101 l-18 23 -12 -36z"/>
<path d="M7298 1560 c-30 -30 -36 -50 -15 -50 19 0 70 57 63 69 -10 15 -17 12
-48 -19z"/>
<path d="M2737 1555 c-10 -15 -13 -26 -7 -30 6 -3 13 0 16 8 3 8 18 17 35 21
37 7 38 26 2 26 -18 -1 -35 -10 -46 -25z"/>
<path d="M8964 1543 c-4 -21 -11 -46 -16 -55 -7 -15 -4 -18 22 -18 30 0 30 0
30 55 0 41 -4 55 -15 55 -8 0 -17 -14 -21 -37z"/>
<path d="M4650 1551 c0 -12 6 -21 15 -21 8 0 15 4 15 9 0 5 -7 14 -15 21 -13
10 -15 9 -15 -9z"/>
<path d="M2660 1541 c0 -12 6 -21 16 -21 9 0 14 7 12 17 -5 25 -28 28 -28 4z"/>
<path d="M980 1538 c0 -26 12 -58 22 -58 14 0 5 63 -9 68 -7 2 -13 -2 -13 -10z"/>
<path d="M2847 1544 c-14 -14 -6 -24 19 -24 16 0 24 5 22 13 -5 14 -31 21 -41
11z"/>
<path d="M2445 1507 c-9 -21 12 -67 30 -67 24 0 17 74 -8 78 -9 2 -19 -3 -22
-11z"/>
<path d="M1346 1446 c-6 -62 -1 -134 12 -166 6 -15 28 -141 38 -215 9 -66 14
-73 30 -42 13 23 13 34 2 65 -7 20 -17 43 -22 51 -11 15 -19 73 -35 250 -5 62
-12 115 -14 117 -2 3 -7 -25 -11 -60z"/>
<path d="M2640 1501 c0 -5 -16 -26 -35 -45 -43 -45 -44 -56 -2 -55 56 2 82 13
79 35 -8 45 -42 98 -42 65z"/>
<path d="M2687 1489 c-6 -22 13 -35 38 -25 13 5 12 9 -5 26 -25 25 -26 25 -33
-1z"/>
<path d="M2760 1506 c0 -10 28 -13 41 -5 10 6 7 9 -13 9 -16 0 -28 -2 -28 -4z"/>
<path d="M6179 1481 c-43 -36 -78 -96 -63 -111 10 -10 61 50 92 109 18 34 11
35 -29 2z"/>
<path d="M87 1484 c-8 -8 1 -24 14 -24 5 0 9 7 9 15 0 15 -12 20 -23 9z"/>
<path d="M6021 1408 c2 -88 6 -108 20 -108 16 0 6 183 -9 188 -10 3 -12 -15
-11 -80z"/>
<path d="M2823 1461 c-40 -7 -61 -17 -52 -25 10 -8 117 -14 129 -6 18 11 5 40
-17 39 -10 -1 -37 -5 -60 -8z"/>
<path d="M7137 1398 c-3 -13 -2 -39 2 -58 l8 -35 8 48 c8 51 -7 90 -18 45z"/>
<path d="M4794 1359 c-12 -20 13 -32 35 -17 12 8 18 18 14 21 -10 11 -41 8
-49 -4z"/>
<path d="M2422 1330 c-5 -15 -12 -44 -13 -65 -3 -30 0 -40 12 -43 12 -2 18 8
22 42 4 25 3 56 -2 68 l-9 23 -10 -25z"/>
<path d="M6197 1334 c-15 -15 8 -24 63 -24 32 0 62 -4 65 -10 11 -18 25 -10
25 15 0 24 -2 25 -73 25 -41 0 -77 -3 -80 -6z"/>
<path d="M6088 1296 c-9 -8 -24 -12 -35 -10 -21 6 -39 -19 -27 -37 10 -17 46
-9 51 10 3 14 15 21 37 23 17 2 31 8 31 13 0 16 -41 17 -57 1z"/>
<path d="M6267 1273 c-14 -13 -6 -23 19 -23 22 0 25 2 14 15 -14 16 -23 19
-33 8z"/>
<path d="M6432 1248 c-6 -7 -11 -24 -12 -38 -5 -62 -8 -687 -4 -702 13 -43 21
-10 23 84 1 55 5 106 9 112 5 6 10 63 11 126 1 63 7 120 12 127 6 6 12 36 14
65 2 29 7 79 10 111 6 48 5 57 -9 57 -9 0 -16 8 -16 19 0 44 -18 63 -38 39z
m32 -74 c9 -25 7 -72 -4 -79 -5 -3 -10 3 -10 13 0 11 -3 34 -6 51 -7 32 9 44
20 15z"/>
<path d="M5960 1220 c0 -36 13 -39 28 -6 11 25 7 36 -15 36 -8 0 -13 -12 -13
-30z"/>
<path d="M7306 1224 c-5 -14 9 -54 19 -54 3 0 5 16 5 35 0 36 -13 47 -24 19z"/>
<path d="M1225 1210 c-3 -11 -11 -20 -17 -20 -6 0 -8 -11 -5 -27 4 -16 9 -43
13 -60 12 -60 24 -34 21 47 -1 44 -3 80 -4 80 -1 0 -5 -9 -8 -20z"/>
<path d="M2540 1195 c0 -8 7 -15 15 -15 8 0 15 7 15 15 0 8 -7 15 -15 15 -8 0
-15 -7 -15 -15z"/>
<path d="M3003 1194 c-5 -11 -8 -41 -6 -69 1 -27 2 -58 2 -68 2 -34 21 -6 21
29 0 22 6 37 15 40 20 8 19 17 -4 55 -17 28 -20 29 -28 13z"/>
<path d="M2585 1180 c-7 -11 18 -17 95 -24 105 -10 185 -21 198 -29 25 -16 26
25 1 44 -21 16 -43 19 -156 19 -75 0 -134 -4 -138 -10z"/>
<path d="M6051 1075 c0 -95 12 -131 24 -75 4 16 4 38 0 49 -3 11 -2 36 3 54 9
34 1 67 -18 67 -5 0 -9 -43 -9 -95z"/>
<path d="M2456 1142 c-7 -12 5 -122 14 -122 4 0 13 7 21 16 10 12 10 20 1 35
-7 10 -12 30 -12 43 0 26 -15 43 -24 28z"/>
<path d="M2636 1074 c-5 -12 -1 -14 17 -9 35 11 44 25 15 25 -14 0 -29 -7 -32
-16z"/>
<path d="M2867 1069 c-10 -6 -29 -8 -42 -5 -13 3 -34 2 -46 -2 -17 -7 -3 -10
55 -15 86 -8 110 -2 81 20 -22 15 -25 16 -48 2z"/>
<path d="M7524 1034 c-4 -14 -2 -35 4 -47 9 -19 11 -15 11 26 1 52 -5 61 -15
21z"/>
<path d="M2540 955 c-7 -8 -26 -15 -42 -15 -24 0 -27 -3 -20 -16 5 -9 7 -25 5
-35 -3 -11 0 -19 6 -19 6 0 11 8 11 18 0 25 19 42 47 42 16 0 23 6 23 20 0 24
-13 26 -30 5z"/>
<path d="M2725 961 c-6 -11 9 -23 19 -14 9 9 7 23 -3 23 -6 0 -12 -4 -16 -9z"/>
<path d="M2780 960 c0 -5 15 -10 34 -10 19 0 38 5 41 10 4 6 -10 10 -34 10
-23 0 -41 -4 -41 -10z"/>
<path d="M8547 940 c-3 -11 -2 -30 1 -42 6 -23 6 -23 13 2 10 36 10 60 0 60
-5 0 -11 -9 -14 -20z"/>
<path d="M1250 930 c0 -19 3 -21 12 -12 9 9 9 15 0 24 -9 9 -12 7 -12 -12z"/>
<path d="M6054 915 c-6 -23 -6 -64 -2 -95 4 -31 3 -76 -2 -103 -14 -68 -13
-84 10 -107 11 -11 20 -27 20 -35 0 -8 7 -15 15 -15 19 0 19 14 1 43 -14 21
-16 51 -17 222 0 33 -4 76 -8 95 l-7 35 -10 -40z"/>
<path d="M2974 907 c-2 -7 -3 -67 -2 -132 2 -84 7 -120 15 -123 20 -6 27 26
13 53 -7 13 -10 32 -6 41 4 10 9 53 12 96 4 66 2 78 -11 78 -9 0 -18 -6 -21
-13z"/>
<path d="M586 781 c3 -55 24 -99 24 -50 0 14 -4 29 -9 35 -5 5 -12 23 -14 39
-3 17 -3 6 -1 -24z"/>
<path d="M7631 796 c-8 -10 -9 -16 -1 -21 5 -3 10 -19 10 -36 0 -16 5 -29 10
-29 6 0 10 23 10 50 0 51 -8 61 -29 36z"/>
<path d="M2660 784 c0 -10 7 -14 22 -12 32 5 35 28 4 28 -17 0 -26 -5 -26 -16z"/>
<path d="M6112 791 c-19 -12 8 -21 63 -21 24 0 47 -4 50 -10 10 -16 51 -11 76
9 22 18 22 20 6 26 -9 4 -24 2 -32 -5 -13 -11 -38 -10 -125 6 -14 2 -31 0 -38
-5z"/>
<path d="M7257 784 c-10 -11 -8 -82 2 -88 12 -8 26 73 14 85 -5 5 -12 6 -16 3z"/>
<path d="M1280 761 c0 -12 5 -21 10 -21 6 0 10 6 10 14 0 8 -4 18 -10 21 -5 3
-10 -3 -10 -14z"/>
<path d="M450 762 c0 -5 7 -16 16 -23 14 -12 16 -11 13 5 -4 20 -29 35 -29 18z"/>
<path d="M5811 753 c1 -10 5 -29 9 -43 7 -21 8 -19 9 18 1 23 -3 42 -9 42 -5
0 -10 -8 -9 -17z"/>
<path d="M6963 710 c0 -25 2 -35 4 -22 2 12 2 32 0 45 -2 12 -4 2 -4 -23z"/>
<path d="M2676 725 c-18 -18 -59 -20 -85 -3 -15 9 -25 9 -46 0 -14 -7 -40 -12
-58 -12 -21 0 -39 -8 -50 -21 -25 -28 -17 -32 33 -19 23 6 78 13 123 15 96 5
267 34 267 47 0 4 -38 8 -84 8 -62 0 -89 -4 -100 -15z"/>
<path d="M7647 623 c-11 -10 -8 -83 3 -83 6 0 10 20 10 45 0 46 -2 50 -13 38z"/>
<path d="M5796 611 c-7 -10 22 -37 30 -28 9 8 -3 37 -15 37 -5 0 -12 -4 -15
-9z"/>
<path d="M6710 578 c0 -21 5 -38 10 -38 13 0 13 40 0 60 -7 11 -10 5 -10 -22z"/>
<path d="M6270 535 c0 -8 -14 -22 -31 -30 l-30 -16 30 -28 c20 -19 41 -28 58
-27 35 1 46 -18 13 -22 -13 -2 -35 -13 -49 -23 -14 -11 -40 -19 -62 -19 -22 0
-39 -5 -39 -10 0 -6 11 -8 26 -4 14 4 44 1 67 -7 31 -10 41 -11 45 -1 2 7 9
12 15 12 7 0 25 14 41 30 l28 31 -26 24 c-15 14 -33 25 -41 25 -8 0 -19 17
-25 40 -11 41 -20 52 -20 25z"/>
<path d="M7782 516 c1 -10 8 -17 13 -17 15 1 12 24 -3 29 -9 3 -13 -2 -10 -12z"/>
<path d="M2678 497 c-21 -5 -38 -13 -38 -19 0 -13 103 -5 107 8 6 17 -26 22
-69 11z"/>
<path d="M6059 466 c-3 -26 1 -48 9 -55 13 -13 14 -19 16 -150 1 -90 19 -123
29 -54 3 21 9 53 13 71 4 20 2 38 -6 47 -6 8 -14 49 -16 91 -5 84 -8 94 -29
94 -8 0 -14 -16 -16 -44z"/>
<path d="M6492 481 c-8 -4 -13 -26 -12 -52 2 -89 -30 -280 -51 -305 -6 -7 -13
-38 -16 -68 l-6 -56 47 0 c45 0 46 1 46 33 1 17 9 50 20 72 11 22 19 48 20 58
0 29 -24 14 -34 -22 -6 -21 -15 -31 -25 -29 -30 6 -26 98 4 98 9 0 15 10 15
24 0 14 7 55 15 92 17 70 17 155 0 161 -5 1 -16 -1 -23 -6z"/>
<path d="M6710 444 c0 -14 4 -23 10 -19 6 3 10 15 10 26 0 10 -4 19 -10 19 -5
0 -10 -12 -10 -26z"/>
<path d="M2366 445 c-8 -22 3 -40 16 -27 7 7 7 16 1 27 -9 16 -10 16 -17 0z"/>
<path d="M4130 424 c0 -17 22 -14 28 4 2 7 -3 12 -12 12 -9 0 -16 -7 -16 -16z"/>
<path d="M2748 373 c-14 -3 -16 -9 -9 -22 7 -13 4 -24 -15 -44 -22 -24 -31
-47 -18 -47 15 0 44 22 44 34 0 8 13 28 29 45 36 39 26 49 -31 34z"/>
<path d="M2835 371 c-7 -12 12 -24 25 -16 11 7 4 25 -10 25 -5 0 -11 -4 -15
-9z"/>
<path d="M4520 370 l-35 -7 33 -3 c17 -2 37 -3 42 -4 12 -1 15 18 3 20 -4 1
-24 -2 -43 -6z"/>
<path d="M5975 370 c-8 -13 14 -52 26 -45 15 10 11 55 -5 55 -8 0 -18 -4 -21
-10z"/>
<path d="M2394 356 c-3 -8 -1 -23 5 -33 9 -15 10 -13 11 15 0 34 -7 42 -16 18z"/>
<path d="M4638 341 c3 -25 -1 -32 -27 -45 -30 -16 -31 -19 -31 -81 0 -42 5
-68 14 -78 8 -8 18 -42 22 -76 6 -56 9 -61 31 -61 24 0 24 1 22 95 -2 94 -10
110 -36 84 -21 -21 -26 31 -7 73 23 51 47 48 54 -7 3 -27 7 -35 12 -24 4 9 1
47 -5 83 -10 57 -14 66 -32 66 -18 0 -21 -5 -17 -29z"/>
<path d="M5035 340 c-4 -6 6 -10 22 -10 22 0 25 2 13 10 -19 12 -27 12 -35 0z"/>
<path d="M8670 335 c0 -8 5 -15 10 -15 6 0 10 7 10 15 0 8 -4 15 -10 15 -5 0
-10 -7 -10 -15z"/>
<path d="M3333 313 c-17 -6 -17 -43 0 -43 8 0 22 8 31 19 15 17 15 19 1 25 -9
3 -17 6 -18 5 -1 0 -8 -3 -14 -6z"/>
<path d="M4370 270 c-9 -16 -8 -25 0 -36 16 -18 30 -9 30 21 0 32 -16 40 -30
15z"/>
<path d="M5940 280 c0 -5 11 -10 25 -10 14 0 25 5 25 10 0 6 -11 10 -25 10
-14 0 -25 -4 -25 -10z"/>
<path d="M8617 274 c-11 -11 -8 -44 3 -44 15 0 24 30 13 41 -5 5 -12 6 -16 3z"/>
<path d="M6260 246 c0 -8 5 -18 10 -21 17 -10 11 -40 -15 -79 -14 -21 -23 -42
-20 -47 10 -15 22 -10 28 10 2 11 15 21 28 23 20 2 25 11 33 50 4 27 6 55 2
63 -7 20 -66 20 -66 1z"/>
<path d="M3111 226 c-9 -22 -15 -26 -23 -18 -27 27 -148 10 -148 -20 0 -14 27
-9 40 7 16 19 47 19 84 0 56 -29 91 -10 68 38 -10 22 -10 22 -21 -7z"/>
<path d="M4490 229 c-8 -14 -9 -24 -2 -31 14 -14 32 -1 32 22 0 28 -17 33 -30
9z"/>
<path d="M4298 213 c-6 -16 -10 -32 -8 -38 2 -5 4 -37 4 -69 1 -80 21 -84 29
-7 4 33 9 78 13 100 5 34 4 41 -10 41 -9 0 -22 -12 -28 -27z"/>
<path d="M8905 208 c-4 -10 -4 -26 0 -35 8 -17 8 -17 12 0 3 9 3 25 0 35 -4
16 -4 16 -12 0z"/>
<path d="M2805 196 c-19 -14 -19 -15 -1 -35 22 -24 66 -28 66 -7 0 8 -7 16
-15 20 -8 3 -15 12 -15 21 0 19 -11 19 -35 1z"/>
<path d="M2595 180 c-3 -5 -38 -10 -77 -10 -68 0 -70 -1 -65 -22 4 -12 2 -27
-4 -34 -6 -7 -7 -33 -3 -63 5 -41 10 -51 26 -51 15 0 18 5 13 20 -4 12 -4 39
0 60 6 35 11 41 45 51 31 9 47 8 89 -6 47 -15 54 -15 69 -2 9 9 33 17 52 19
19 2 35 8 35 13 0 17 -93 17 -127 1 -40 -20 -40 -20 -32 9 6 25 -8 35 -21 15z"/>
<path d="M7856 84 c-10 -25 -7 -84 4 -84 6 0 10 23 10 50 0 52 -4 61 -14 34z"/>
<path d="M8310 77 c0 -19 16 -31 24 -18 3 5 -1 14 -9 21 -12 10 -15 10 -15 -3z"/>
<path d="M2360 65 c0 -10 10 -15 30 -15 20 0 30 5 30 15 0 10 -10 15 -30 15
-20 0 -30 -5 -30 -15z"/>
<path d="M6112 48 c-19 -19 -14 -28 12 -28 29 0 44 19 25 31 -18 12 -23 11
-37 -3z"/>
<path d="M4377 30 c-7 -26 -4 -34 11 -29 4 2 5 15 2 29 l-6 25 -7 -25z"/>
<path d="M4468 30 c-7 -24 -3 -38 8 -28 3 4 4 17 2 30 l-3 23 -7 -25z"/>
<path d="M4546 24 c-9 -22 -8 -24 9 -24 8 0 15 9 15 20 0 24 -15 27 -24 4z"/>
<path d="M4710 16 c0 -11 9 -16 26 -16 31 0 28 23 -4 28 -15 2 -22 -2 -22 -12z"/>
<path d="M5180 15 c0 -8 7 -15 15 -15 8 0 15 7 15 15 0 8 -7 15 -15 15 -8 0
-15 -7 -15 -15z"/>
</g>
</svg>
